<?xml version="1.0" standalone="no"?>
<!DOCTYPE svg PUBLIC "-//W3C//DTD SVG 20010904//EN"
 "http://www.w3.org/TR/2001/REC-SVG-20010904/DTD/svg10.dtd">
<svg version="1.0" xmlns="http://www.w3.org/2000/svg"
 width="1024.000000pt" height="1024.000000pt" viewBox="0 0 1024.000000 1024.000000"
 preserveAspectRatio="xMidYMid meet">

<g transform="translate(0.000000,1024.000000) scale(0.100000,-0.100000)"
fill="#000000" stroke="none">
<path d="M5385 7980 c3 -5 8 -10 11 -10 2 0 4 5 4 10 0 6 -5 10 -11 10 -5 0
-7 -4 -4 -10z"/>
<path d="M5430 7970 c11 -8 -6 -10 -67 -8 -45 2 -79 0 -75 -4 7 -6 261 -85
551 -170 79 -24 136 -45 127 -46 -10 -2 -74 12 -144 31 -164 46 -564 152 -622
166 -33 7 -46 7 -52 -2 -4 -7 -8 -9 -8 -5 0 3 -26 -3 -57 -14 -33 -11 -72 -18
-93 -15 -34 4 -150 -25 -544 -137 -140 -40 -181 -48 -165 -32 2 2 125 42 272
87 l268 83 -27 23 c-15 13 -30 23 -34 23 -10 0 -553 -152 -655 -183 -46 -15
-74 -27 -65 -31 8 -3 58 -19 110 -35 144 -44 443 -150 454 -161 20 -20 -25 -9
-173 40 -82 28 -158 50 -167 50 -10 0 -48 -10 -86 -22 l-69 -22 63 -33 c55
-28 59 -32 28 -27 -49 7 -22 -8 65 -36 39 -13 98 -36 131 -52 34 -15 70 -28
80 -28 11 0 116 29 234 65 118 36 260 79 316 95 l101 30 169 -54 c93 -30 268
-84 389 -120 465 -139 590 -182 593 -205 2 -12 8 -21 15 -21 29 0 -17 -23
-113 -56 -172 -58 -240 -85 -240 -95 0 -4 -7 -5 -17 -2 -11 5 -14 3 -8 -6 6
-10 2 -11 -15 -6 -14 5 -20 3 -16 -3 11 -19 315 -122 359 -122 13 0 44 7 67
15 23 8 59 15 79 15 35 -1 35 -1 -23 -25 -33 -14 -61 -27 -63 -29 -7 -7 145
-57 206 -67 48 -7 66 -7 71 2 4 6 12 9 18 5 5 -3 26 1 46 9 42 18 46 18 46 5
0 -5 -7 -10 -16 -10 -8 0 -13 -4 -10 -9 3 -5 -2 -12 -12 -16 -14 -6 -12 -9 13
-16 17 -4 55 -17 85 -27 90 -32 103 -35 96 -23 -5 7 10 10 46 9 29 -1 67 4 83
11 l30 13 -60 24 c-33 13 -219 76 -412 139 -194 64 -353 118 -353 121 0 2 19
8 43 14 99 26 437 135 437 141 0 3 -64 25 -142 49 -399 119 -459 140 -395 140
33 0 308 100 302 110 -2 3 -31 15 -65 25 -68 21 -68 21 -345 -65 -170 -53
-220 -49 -68 5 66 23 107 43 100 47 -9 6 -9 8 1 8 22 0 112 42 107 50 -2 4
-40 17 -85 30 l-80 23 -155 -53 c-136 -46 -184 -56 -162 -34 6 7 170 65 410
147 81 27 144 53 140 57 -4 4 -147 46 -318 94 -170 48 -341 97 -380 107 -111
32 -112 32 -95 19z m-109 -136 c137 -40 410 -126 449 -141 10 -3 11 -7 3 -10
-6 -2 -150 34 -320 81 l-308 86 -304 -90 c-285 -85 -407 -115 -371 -92 8 6
105 38 215 72 110 34 254 79 320 100 66 21 129 38 141 39 11 1 90 -19 175 -45z
m944 -314 c-3 -5 -12 -10 -18 -10 -7 0 -6 4 3 10 19 12 23 12 15 0z"/>
<path d="M6298 7720 c-1 -5 -26 -18 -54 -28 -39 -14 -48 -20 -39 -29 7 -7 16
-9 19 -6 3 4 6 -1 6 -10 0 -29 18 -28 114 5 96 32 120 33 95 1 -12 -15 -12
-16 4 -10 11 4 30 10 43 13 48 12 41 15 -168 70 -9 3 -18 0 -20 -6z"/>
<path d="M3857 7702 c-16 -2 -25 -8 -21 -14 5 -7 -2 -9 -20 -4 -29 7 -76 -2
-76 -14 0 -10 98 -18 108 -9 4 4 43 -4 87 -17 49 -15 81 -20 83 -14 2 5 11 10
20 11 14 0 14 2 2 6 -8 3 -25 14 -38 24 l-23 18 23 5 c13 3 -7 3 -44 0 -36 -2
-68 -1 -70 3 -1 5 -15 7 -31 5z"/>
<path d="M4055 7670 c3 -5 8 -10 11 -10 2 0 4 5 4 10 0 6 -5 10 -11 10 -5 0
-7 -4 -4 -10z"/>
<path d="M3601 7629 c-35 -10 -65 -20 -68 -23 -2 -2 21 -14 52 -25 68 -26 180
-30 244 -10 l44 14 -99 33 c-55 18 -101 32 -104 31 -3 -1 -34 -10 -69 -20z"/>
<path d="M6452 7618 c-51 -17 -91 -32 -89 -34 4 -4 67 -11 115 -13 13 -1 20
-5 17 -11 -11 -17 97 -2 165 23 l65 25 -45 11 c-25 7 -58 16 -74 21 -40 13
-48 12 -154 -22z"/>
<path d="M6705 7560 c-49 -16 -98 -33 -110 -38 -11 -6 -99 -36 -195 -67 -96
-32 -182 -61 -190 -65 -9 -5 17 -17 75 -35 50 -15 160 -48 245 -75 85 -26 166
-51 179 -55 12 -4 19 -10 15 -15 -5 -4 -107 -40 -226 -80 -120 -39 -220 -76
-223 -80 -3 -5 27 -18 67 -30 40 -12 80 -23 88 -26 41 -15 562 -173 607 -184
l52 -14 160 62 c89 34 165 62 171 62 5 0 10 4 10 8 0 11 -119 46 -162 46 -20
0 -34 4 -32 8 3 4 -14 12 -36 19 -58 18 -43 22 31 9 63 -12 66 -11 164 28 55
21 166 63 247 93 81 29 144 56 140 59 -4 4 -104 37 -223 74 l-215 68 -154 -56
c-84 -31 -155 -56 -157 -56 -2 0 -2 -4 1 -8 3 -5 54 -22 113 -38 71 -19 99
-30 81 -32 -14 -2 -74 11 -131 28 -103 31 -106 31 -163 16 -55 -14 -89 -15
-45 -1 12 3 19 11 16 16 -4 5 -1 9 5 9 7 0 26 6 43 14 18 8 100 38 182 66 83
29 155 56 160 60 10 8 145 -24 343 -81 56 -16 107 -29 112 -29 6 0 3 14 -5 30
-9 17 -21 28 -26 24 -6 -3 -19 3 -30 15 -18 20 -19 21 -2 22 19 0 -172 59
-497 154 -102 29 -225 65 -274 79 -48 14 -96 26 -105 25 -9 0 -56 -13 -106
-29z m264 -106 c45 -14 81 -27 78 -30 -2 -2 -46 7 -98 21 -52 14 -104 25 -116
25 -12 0 -25 5 -29 12 -10 16 59 4 165 -28z m-314 -108 c55 -19 96 -35 91 -35
-11 -1 -199 59 -205 65 -10 10 21 2 114 -30z m624 18 c10 -9 -35 -3 -49 6 -11
8 -7 9 15 4 17 -4 32 -8 34 -10z m-462 -70 c-3 -3 -12 -4 -19 -1 -8 3 -5 6 6
6 11 1 17 -2 13 -5z m806 -75 c45 -11 86 -24 90 -28 7 -7 -64 -38 -130 -56
-30 -8 -144 44 -141 65 4 18 45 40 76 40 13 0 60 -9 105 -21z m-636 -155 c-3
-3 -12 -4 -19 -1 -8 3 -5 6 6 6 11 1 17 -2 13 -5z m97 -16 c67 -19 64 -28 -5
-12 -34 8 -65 17 -68 19 -8 9 31 5 73 -7z"/>
<path d="M3325 7555 c-68 -20 -679 -198 -727 -211 -9 -3 -19 -15 -22 -28 -4
-17 -11 -23 -24 -19 -13 3 -18 -2 -19 -17 -2 -20 2 -21 33 -16 19 4 134 35
257 70 122 35 291 82 376 105 l153 42 169 -63 c93 -35 169 -66 169 -70 0 -4
-10 -10 -22 -13 -184 -53 -405 -134 -606 -223 -91 -40 -107 -44 -135 -35 -18
6 -111 38 -207 72 -188 65 -240 75 -237 41 1 -14 17 -25 62 -41 33 -12 145
-55 248 -96 104 -40 199 -73 212 -73 13 0 97 25 186 55 104 35 170 53 183 49
15 -5 -23 -22 -139 -61 -88 -29 -167 -56 -175 -59 -15 -6 10 -18 140 -69 88
-34 19 -21 -80 15 -41 15 -142 51 -225 80 -82 29 -217 77 -299 107 -81 29
-151 53 -155 53 -13 0 76 -49 119 -65 75 -29 110 -46 110 -54 0 -4 11 -14 25
-21 14 -8 23 -20 21 -27 -3 -7 0 -13 6 -13 6 0 91 -31 187 -68 283 -111 242
-102 346 -69 50 16 104 30 120 32 34 3 537 160 574 179 22 12 16 16 -90 54
-63 23 -161 57 -219 75 -58 18 -104 37 -103 41 2 11 141 59 351 122 101 29
157 51 150 56 -7 4 -58 22 -113 39 -55 17 -179 58 -275 90 -96 32 -191 59
-210 58 -19 0 -71 -11 -115 -24z m642 -181 c-3 -3 -12 -4 -19 -1 -8 3 -5 6 6
6 11 1 17 -2 13 -5z m-342 -244 c2 -4 -20 0 -50 8 -30 8 -52 19 -49 23 5 8 91
-18 99 -31z"/>
<path d="M5040 7542 c-134 -37 -597 -178 -804 -245 l-189 -61 179 -58 c181
-59 255 -70 249 -38 -7 37 -11 45 -19 52 -19 14 55 64 80 54 9 -3 12 -1 9 4
-3 6 1 13 9 16 13 5 13 9 1 28 -16 23 -10 39 18 49 11 4 21 16 24 27 4 14 25
25 77 40 39 12 151 46 248 76 98 30 185 56 195 56 31 3 663 -205 653 -214 -3
-2 3 -13 13 -23 26 -25 14 -92 -20 -121 -33 -27 -25 -60 17 -66 31 -5 304 75
329 95 8 7 22 11 32 9 10 -2 26 1 35 6 12 7 -28 23 -157 64 -206 66 -581 181
-764 235 l-130 39 -85 -24z"/>
<path d="M3920 7529 c-19 -4 -54 -11 -78 -16 l-44 -8 159 -54 c87 -30 164 -57
172 -59 9 -4 12 -1 7 6 -9 14 13 16 34 2 18 -11 31 -6 -170 -60 -85 -23 -213
-60 -284 -84 l-129 -42 214 -71 c118 -40 223 -73 233 -75 28 -4 32 -28 6 -28
-24 0 -671 -214 -699 -230 -12 -8 -6 -9 21 -4 20 3 51 3 68 -1 28 -6 30 -9 18
-21 -11 -12 -21 -12 -42 -4 -15 5 -37 10 -49 10 -15 -1 -7 -8 27 -25 l50 -24
45 19 c25 10 58 21 73 24 15 3 33 12 40 19 19 17 36 19 72 7 32 -10 88 2 199
45 44 17 45 17 31 43 -7 14 -12 27 -11 29 2 1 26 -5 54 -14 l52 -16 168 56
c260 86 245 72 128 116 -55 20 -155 57 -222 81 -68 24 -123 47 -123 52 0 11
27 10 48 -2 9 -6 121 -46 247 -89 127 -44 273 -96 325 -116 52 -20 201 -73
330 -117 l235 -80 45 15 c43 14 324 117 510 186 75 28 107 48 95 59 -2 2 -90
-26 -197 -63 -106 -37 -253 -87 -327 -111 l-134 -45 -176 61 c-97 34 -243 84
-326 112 -121 40 -400 137 -614 213 l-34 12 44 16 c24 9 121 41 214 71 94 30
181 59 194 64 22 8 15 12 -63 40 -285 104 -350 119 -436 101z m108 -26 c18 -9
31 -18 28 -20 -3 -3 -29 7 -58 21 -55 27 -28 25 30 -1z m-438 -663 c13 -9 13
-10 0 -10 -8 0 -22 5 -30 10 -13 9 -13 10 0 10 8 0 22 -5 30 -10z"/>
<path d="M3265 7444 c-27 -8 -153 -47 -280 -85 -126 -39 -277 -85 -335 -102
-142 -43 -91 -49 63 -8 62 17 125 31 139 31 30 0 198 -62 231 -85 12 -8 28
-15 37 -15 30 0 525 169 510 174 -8 3 -77 28 -153 56 -77 27 -144 50 -150 49
-7 0 -34 -7 -62 -15z"/>
<path d="M2548 7323 c7 -3 16 -2 19 1 4 3 -2 6 -13 5 -11 0 -14 -3 -6 -6z"/>
<path d="M4695 7303 c-36 -10 -68 -23 -63 -28 2 -3 29 4 59 14 49 18 52 26 4
14z"/>
<path d="M6160 7196 c-36 -13 -125 -45 -199 -72 -74 -27 -127 -51 -117 -52 10
-2 37 3 60 12 22 8 64 20 91 26 28 6 84 24 125 40 41 15 92 31 113 35 21 4 36
12 34 19 -6 19 -40 17 -107 -8z"/>
<path d="M5628 7126 c-21 -6 -46 -18 -56 -26 -10 -8 -25 -17 -33 -18 -114 -28
-204 -61 -279 -103 -19 -10 -49 -19 -67 -19 -23 0 -33 -6 -38 -20 -8 -26 -40
-26 -90 1 -22 11 -58 24 -80 28 -22 5 -77 23 -122 39 -74 28 -166 49 -185 44
-5 -1 -8 2 -8 7 0 5 -15 14 -32 21 -18 7 -46 18 -63 25 -18 9 -35 10 -46 5 -9
-5 -20 -6 -24 -2 -5 4 -5 1 -1 -6 11 -18 49 -33 346 -133 164 -56 275 -88 290
-85 30 5 553 186 560 193 8 7 -32 33 -41 27 -5 -3 -9 -1 -9 5 0 5 10 11 23 13
16 2 18 5 7 9 -8 3 -32 1 -52 -5z"/>
<path d="M7503 7052 c-95 -32 -173 -59 -173 -62 0 -4 33 -14 74 -25 l75 -18
100 38 c56 21 101 40 101 42 0 3 -7 3 -14 0 -21 -8 -31 30 -13 48 8 8 17 12
19 10 3 -3 5 2 5 10 0 8 -1 15 -1 14 -1 0 -79 -26 -173 -57z"/>
<path d="M7880 7010 c-35 -20 -219 -70 -236 -63 -13 5 -15 3 -9 -7 5 -9 4 -11
-4 -6 -6 4 -40 -3 -75 -15 l-63 -23 -7 -74 c-4 -50 -2 -80 5 -88 7 -9 8 -14 1
-14 -9 0 -12 -58 -23 -440 -2 -50 -2 -52 -6 -13 l-4 42 -42 -3 c-40 -4 -41 -4
-17 9 14 8 33 14 43 15 16 0 17 19 17 270 -1 148 -4 272 -9 274 -4 3 -77 -20
-162 -50 -85 -31 -161 -58 -170 -61 -19 -5 -29 -129 -29 -363 0 -101 -4 -151
-12 -163 -11 -14 -13 30 -15 229 0 135 -3 248 -6 250 -7 7 -127 -26 -165 -45
-38 -19 -38 -18 -52 -178 -13 -158 -13 -336 0 -328 6 3 10 -4 10 -15 0 -16 -5
-20 -15 -16 -9 3 -15 0 -15 -10 0 -10 -6 -14 -14 -11 -8 3 -21 -2 -30 -12 -13
-15 -16 -46 -16 -184 0 -114 4 -168 12 -173 7 -4 8 -3 4 4 -3 6 2 16 13 21 15
8 20 7 25 -6 7 -18 -9 -33 -36 -33 -14 0 -18 -8 -18 -35 l0 -35 68 26 c37 14
74 28 84 31 14 4 16 29 16 231 1 152 4 228 11 230 8 3 11 -65 11 -217 0 -143
4 -221 10 -221 6 0 100 36 209 80 110 44 203 80 208 80 5 0 7 -206 5 -465 l-4
-465 24 9 c48 18 422 177 631 269 35 15 57 31 57 41 6 215 5 246 -10 244 -8
-1 -76 -26 -150 -57 -99 -41 -136 -52 -142 -43 -11 18 -10 27 5 22 6 -2 102
33 212 78 l200 83 1 664 c1 366 0 657 -3 647 -4 -17 -7 -17 -21 -4 -10 9 -26
17 -37 19 -11 1 -23 8 -27 13 -4 6 -8 -42 -9 -105 -1 -135 -4 -168 -12 -177
-4 -3 -7 55 -7 130 0 76 -3 137 -7 137 -5 0 -86 -29 -182 -65 -96 -36 -176
-63 -179 -61 -6 6 31 24 212 102 146 63 156 69 130 77 -16 5 -35 9 -41 9 -7 1
-13 5 -13 10 0 11 -111 9 -130 -2z m158 -196 l-3 -66 -90 -34 c-49 -18 -91
-31 -94 -29 -2 3 0 5 5 5 5 0 15 4 23 9 13 8 13 12 0 28 -13 17 -13 17 4 4 15
-12 20 -12 30 -1 10 10 9 12 -5 7 -10 -3 -20 -2 -23 3 -3 6 -16 5 -31 0 -19
-8 -35 -6 -60 6 -19 9 -33 18 -31 21 6 5 260 111 270 112 4 1 7 -29 5 -65z
m-378 -27 c0 -7 -141 -59 -146 -54 -3 2 23 16 58 30 58 24 88 32 88 24z m-259
-102 c-18 -8 -36 -15 -40 -15 -13 1 45 29 59 29 8 0 0 -6 -19 -14z m349 -45
c-8 -5 -19 -10 -25 -10 -5 0 -3 5 5 10 8 5 20 10 25 10 6 0 3 -5 -5 -10z m-50
-20 c-8 -5 -19 -10 -25 -10 -5 0 -3 5 5 10 8 5 20 10 25 10 6 0 3 -5 -5 -10z
m326 -79 c-8 -12 -124 -60 -316 -131 -85 -32 -172 -64 -192 -73 -27 -12 -38
-13 -38 -4 0 12 235 110 430 179 114 40 124 43 116 29z m15 -179 c-6 -11 -67
-41 -157 -75 -134 -52 -174 -62 -148 -38 18 18 215 90 229 85 8 -4 15 -1 15 5
0 8 40 32 68 40 1 1 -2 -7 -7 -17z m-311 -148 c0 -8 -4 -12 -10 -9 -5 3 -10
10 -10 16 0 5 5 9 10 9 6 0 10 -7 10 -16z m-3 -166 c-2 -29 -3 -8 -3 47 0 55
1 79 3 53 2 -26 2 -71 0 -100z m-286 -51 c-18 -18 -141 -55 -148 -44 -3 5 -1
7 5 3 5 -3 12 -2 14 3 4 14 84 46 113 46 13 0 20 -4 16 -8z m29 -224 c0 -113
-3 -204 -6 -200 -3 3 -6 93 -5 199 0 228 0 208 6 208 3 0 5 -93 5 -207z m-225
145 c-12 -7 -21 -6 -28 2 -9 10 -8 12 6 7 9 -4 17 -2 17 4 0 6 5 7 11 3 8 -5
6 -10 -6 -16z m225 -485 c0 -48 -3 -64 -10 -53 -17 26 -12 120 7 120 2 0 3
-30 3 -67z m300 -8 c0 -2 -18 -14 -40 -25 -32 -16 -38 -17 -33 -5 3 9 8 14 10
11 3 -3 12 1 20 9 14 14 43 21 43 10z m-262 -112 c36 5 36 5 -13 -17 -27 -13
-51 -23 -52 -22 -1 1 4 18 10 39 10 31 13 34 15 17 3 -20 8 -22 40 -17z m570
25 c-4 -11 -228 -115 -251 -117 -4 -1 -4 6 1 16 10 17 205 110 235 112 11 1
17 -4 15 -11z"/>
<path d="M4267 6961 c-75 -27 -140 -50 -142 -53 -3 -3 14 -5 37 -6 23 -1 61
-11 85 -23 60 -29 105 -29 195 -2 l77 23 53 -19 c29 -11 98 -36 153 -56 55
-20 159 -59 232 -86 145 -54 161 -56 224 -33 176 65 244 89 392 142 l167 60
38 -18 c87 -42 110 -44 197 -15 64 20 91 25 135 20 l55 -6 -43 20 c-47 22
-199 72 -277 90 l-50 12 -330 -115 c-181 -64 -335 -116 -342 -116 -12 0 -157
49 -501 169 -95 34 -183 61 -195 60 -12 0 -84 -22 -160 -48z"/>
<path d="M2320 6992 c-13 -2 -33 -10 -43 -17 -16 -11 -9 -16 60 -41 43 -15
157 -58 253 -95 l175 -68 6 57 6 57 1 -57 c2 -61 4 -63 67 -90 38 -16 34 -23
-10 -18 -11 1 -58 18 -105 37 -148 62 -546 192 -569 186 -21 -5 -21 -6 -21
-466 0 -253 -2 -458 -5 -455 -3 3 -10 198 -15 434 -5 236 -13 449 -16 474 l-6
45 -12 -37 c-7 -20 -22 -48 -34 -62 l-21 -27 -4 28 c-7 47 -7 -584 0 -908 l6
-306 45 -17 c25 -9 48 -14 51 -10 3 3 9 54 12 112 l5 107 2 -116 c1 -84 6
-120 15 -128 17 -13 189 -80 237 -91 54 -12 150 -48 304 -112 37 -15 72 -28
77 -28 5 0 9 127 9 294 0 177 4 297 10 301 10 6 155 -63 147 -71 -2 -3 -29 4
-58 16 -30 11 -60 20 -67 20 -10 0 -12 -62 -10 -300 2 -197 0 -299 -7 -296
-103 45 -251 100 -290 107 -27 5 -116 34 -197 64 -81 30 -152 55 -158 55 -11
0 -13 -59 -4 -136 l6 -50 76 -29 c41 -16 108 -46 149 -67 41 -21 81 -38 89
-38 7 0 21 -8 31 -18 10 -10 72 -38 138 -62 66 -23 144 -53 174 -66 29 -13 55
-24 57 -24 2 0 4 84 4 187 0 102 2 184 5 182 2 -3 5 -97 5 -210 1 -112 4 -216
7 -230 6 -31 39 -49 90 -49 l35 0 -4 320 c-2 219 0 319 7 316 115 -51 411
-166 425 -166 10 0 21 4 25 9 5 10 -2 18 -40 47 -19 13 -17 14 18 8 l37 -6 0
101 0 101 -27 6 c-16 4 -50 18 -76 31 -27 13 -54 22 -60 20 -7 -2 -19 1 -27 8
-8 6 -41 22 -73 35 -32 12 -55 25 -53 28 3 2 28 -5 55 -17 89 -38 85 -48 77
173 -5 154 -4 195 6 199 10 4 10 6 1 6 -7 1 -13 8 -13 17 0 9 6 14 13 12 9 -4
13 -58 15 -219 2 -151 6 -217 15 -225 7 -7 37 -19 67 -29 30 -9 61 -19 68 -21
9 -4 12 28 12 144 0 207 -5 238 -41 251 -27 9 -37 31 -29 66 1 6 1 66 1 135
-1 155 -21 351 -35 355 -6 2 -51 18 -99 36 -74 27 -90 30 -98 18 -5 -8 -9
-112 -9 -231 0 -119 -3 -219 -8 -222 -4 -2 -8 53 -8 122 -1 216 -14 370 -33
377 -119 46 -449 157 -473 160 -51 6 -140 24 -168 35 -44 17 -144 36 -170 32z
m52 -970 c37 -14 65 -28 63 -30 -7 -7 -139 37 -160 53 -19 16 -19 16 5 9 14
-3 55 -18 92 -32z m673 -153 c5 -5 -6 -4 -25 2 -45 15 -54 24 -15 15 17 -4 34
-12 40 -17z m-130 -41 c32 -14 33 -32 0 -24 -24 6 -24 5 -28 -71 l-3 -78 -2
93 c-1 50 0 92 3 92 2 0 16 -5 30 -12z m-28 -315 c-2 -21 -4 -4 -4 37 0 41 2
58 4 38 2 -21 2 -55 0 -75z"/>
<path d="M4305 6806 c-295 -103 -416 -149 -407 -157 4 -4 39 -17 77 -29 39
-13 133 -47 211 -76 92 -35 149 -51 164 -47 14 4 21 2 17 -4 -6 -10 30 -24
276 -110 95 -33 149 -45 209 -50 45 -3 93 -9 107 -14 13 -5 26 -8 28 -6 4 5
-404 158 -594 223 -100 34 -137 54 -102 54 13 0 315 -103 589 -201 96 -34 185
-63 197 -64 11 -2 30 -6 41 -9 18 -6 203 53 577 184 l80 28 -40 17 c-22 10
-116 44 -210 77 -93 32 -154 56 -135 53 19 -3 125 -37 236 -75 l200 -70 69 19
c84 24 99 20 21 -5 -31 -10 -53 -21 -49 -25 5 -3 53 -22 108 -42 l101 -35 194
69 c107 39 201 76 208 82 10 11 -1 18 -55 37 -38 13 -122 43 -188 68 -66 24
-183 66 -261 92 -78 27 -164 58 -193 71 l-52 22 -117 -43 c-64 -23 -202 -73
-306 -112 l-189 -70 -66 26 c-36 14 -147 54 -246 90 -99 35 -204 74 -233 85
-29 12 -54 21 -55 20 -1 0 -96 -33 -212 -73z m250 -6 c3 -5 3 -10 -2 -11 -33
-3 -56 -10 -113 -31 -120 -47 -190 -70 -201 -66 -8 3 277 113 303 117 4 1 10
-3 13 -9z m1160 -40 c19 -7 18 -8 -6 -18 -51 -20 -96 -24 -120 -11 -24 13 -24
13 11 20 19 4 49 5 65 2 23 -4 27 -2 15 6 -13 10 -13 11 0 10 8 0 24 -4 35 -9z
m-1085 -24 c32 -13 73 -27 91 -31 27 -6 30 -9 15 -17 -12 -7 -42 0 -107 23
-49 17 -92 36 -95 40 -10 17 36 9 96 -15z m1617 -82 c-3 -3 -12 -4 -19 -1 -8
3 -5 6 6 6 11 1 17 -2 13 -5z m-1102 -74 c3 -6 -1 -7 -9 -4 -18 7 -21 14 -7
14 6 0 13 -4 16 -10z m-217 -81 c-3 -12 12 -21 59 -37 32 -10 42 1 18 21 -5 5
1 5 14 2 15 -5 27 -2 32 6 6 10 9 10 9 2 0 -7 7 -10 15 -7 15 6 86 -14 95 -26
19 -26 107 -27 215 0 18 4 35 0 35 -8 0 -5 -44 -24 -97 -42 -54 -18 -119 -44
-145 -57 -42 -21 -123 -29 -112 -12 3 6 -86 49 -101 49 -4 0 -40 14 -82 32
l-76 31 59 28 c32 15 60 28 62 28 1 1 1 -4 0 -10z"/>
<path d="M6240 6844 c-19 -7 -65 -24 -102 -37 l-67 -24 92 -32 92 -31 55 21
c30 11 63 28 73 37 17 15 16 17 -18 30 -19 8 -32 18 -29 23 5 9 -15 14 -49 11
-10 -1 -15 3 -12 8 3 6 5 9 3 9 -2 -1 -19 -7 -38 -15z"/>
<path d="M3880 6825 c-35 -13 -33 -19 5 -15 18 2 17 0 -5 -18 l-25 -20 25 -10
c14 -5 42 -17 62 -25 36 -15 41 -14 113 10 41 13 75 28 75 31 0 12 -133 56
-175 58 -22 1 -56 -4 -75 -11z"/>
<path d="M3900 6709 c0 -5 -4 -7 -10 -4 -5 3 -10 1 -10 -5 0 -12 30 -6 60 11
11 6 8 8 -12 9 -16 0 -28 -5 -28 -11z"/>
<path d="M6280 6716 c0 -2 9 -6 20 -9 11 -3 18 -1 14 4 -5 9 -34 13 -34 5z"/>
<path d="M3825 6630 c-22 -10 -34 -19 -26 -19 11 -1 11 -4 1 -16 -15 -18 15
-33 226 -110 l150 -55 68 26 c37 15 65 28 64 30 -2 2 -96 35 -208 75 -113 39
-209 75 -214 80 -12 11 -13 11 -61 -11z"/>
<path d="M6593 6573 c-10 -4 -13 -88 -14 -371 0 -214 -4 -359 -9 -347 -5 11
-9 71 -9 133 -1 62 -6 122 -11 133 -8 14 -7 19 1 19 9 0 11 35 6 136 -3 75 -7
138 -10 140 -2 2 -37 -7 -77 -21 -88 -30 -89 -30 -62 -6 12 10 49 28 82 40
l60 22 0 55 c0 29 -2 54 -4 54 -7 0 -460 -171 -464 -175 -2 -2 -6 -34 -8 -71
-5 -91 -14 -94 -14 -5 0 55 -3 72 -12 68 -40 -16 -408 -160 -432 -169 -16 -6
-37 -19 -48 -30 -10 -10 -23 -18 -28 -18 -14 0 -86 -48 -122 -81 -15 -14 -43
-31 -62 -37 -27 -10 -125 -92 -110 -92 1 0 67 23 146 50 78 28 149 49 156 48
13 -3 -29 -22 -189 -88 -56 -23 -79 -37 -83 -53 -3 -12 -6 -69 -6 -127 0 -72
-3 -100 -10 -90 -5 8 -10 59 -10 112 0 53 -3 103 -6 112 -5 14 -8 14 -22 -1
-13 -13 -18 -43 -22 -138 l-5 -122 33 9 c19 5 36 7 40 4 3 -3 12 0 21 8 14 12
189 78 356 134 102 34 421 150 605 219 267 100 278 104 284 88 3 -9 -16 -22
-62 -39 -169 -64 -261 -94 -267 -88 -3 4 -9 1 -14 -6 -4 -6 -122 -55 -262
-107 -140 -53 -283 -107 -319 -120 -36 -14 -71 -25 -78 -25 -7 0 -59 -15 -115
-34 -56 -19 -111 -36 -122 -38 -13 -2 -22 -14 -26 -33 -5 -23 -7 -25 -8 -7 -1
24 -16 27 -55 12 -23 -8 -26 -7 -26 12 0 39 -12 11 -16 -39 -3 -26 -7 -58 -9
-69 -3 -12 -8 -107 -11 -212 l-7 -191 22 6 c26 7 28 -8 3 -24 -17 -10 -19 -34
-25 -272 -8 -306 -1 -471 20 -471 17 0 356 127 406 152 43 22 82 18 56 -6 -8
-7 -45 -25 -84 -40 -168 -66 -361 -149 -377 -164 -20 -17 -24 -72 -8 -102 10
-18 12 -18 72 6 34 13 63 22 65 20 2 -2 -22 -14 -54 -26 -62 -24 -91 -45 -80
-56 4 -4 24 -2 44 5 21 6 61 13 88 16 28 2 88 20 135 40 47 20 96 41 109 46
13 5 21 13 17 16 -4 4 10 15 31 25 25 12 39 15 43 7 5 -7 44 5 116 35 332 138
299 120 302 160 l3 36 -58 -26 c-32 -14 -121 -51 -198 -81 -77 -31 -156 -67
-175 -80 -37 -24 -60 -30 -60 -13 0 16 46 41 64 34 9 -3 16 -1 16 5 0 6 5 11
11 11 5 0 62 25 124 55 63 30 117 55 121 55 3 0 39 14 80 31 l74 31 1 261 c1
147 5 251 9 237 4 -14 8 -127 9 -252 1 -126 5 -228 9 -228 12 0 136 50 144 58
3 4 8 148 10 321 l3 313 50 20 c127 49 208 78 211 75 2 -2 -47 -25 -109 -52
-128 -56 -137 -61 -137 -85 0 -16 8 -15 83 12 135 50 380 163 391 180 18 30 1
29 -79 -2 -43 -16 -80 -28 -82 -26 -2 2 32 18 74 36 43 19 84 38 91 43 7 6 12
35 12 78 l0 68 -46 -19 c-25 -11 -57 -29 -71 -40 -30 -24 -53 -26 -53 -5 0 8
35 31 84 53 l84 40 1 217 2 217 -23 -8 c-13 -3 -26 -11 -29 -16 -11 -17 -17 6
-8 30 5 12 20 27 34 34 l25 11 -2 215 -3 215 -28 10 c-23 7 -31 6 -41 -8 -12
-16 -13 -16 -19 -1 -6 16 -21 19 -44 9z m-918 -483 c-91 -39 -118 -47 -80 -22
33 20 111 50 135 51 8 0 -16 -13 -55 -29z m-75 -146 c0 -8 -17 -22 -37 -30
-21 -9 -76 -33 -123 -54 -47 -21 -95 -41 -108 -45 -21 -6 -23 -4 -20 26 3 29
8 34 58 52 235 82 230 81 230 51z m364 -313 c3 -5 -34 -23 -82 -41 -48 -18
-97 -38 -109 -46 -18 -11 -22 -11 -27 2 -4 11 8 21 42 36 130 57 165 67 176
49z m472 -23 c4 -7 3 -8 -4 -4 -7 4 -12 3 -12 -1 0 -5 -17 -15 -37 -22 -21 -8
-101 -41 -178 -74 -141 -60 -205 -82 -205 -67 0 4 28 19 63 33 34 15 127 53
207 86 80 33 148 60 152 61 4 0 10 -5 14 -12z m-547 -265 c-1 -107 -17 -143
-18 -40 -1 70 -3 77 -21 77 -11 0 -20 3 -20 8 0 7 36 28 53 31 4 0 7 -34 6
-76z m283 43 c4 -20 -2 -27 -39 -45 -24 -11 -46 -21 -48 -21 -3 0 -5 13 -5 30
0 50 83 83 92 36z m358 -6 c-8 -5 -19 -10 -25 -10 -5 0 -3 5 5 10 8 5 20 10
25 10 6 0 3 -5 -5 -10z m-477 -70 c-3 -12 -8 -19 -11 -16 -5 6 5 36 12 36 2 0
2 -9 -1 -20z m-483 -28 c0 -4 -27 -16 -60 -28 -32 -11 -57 -17 -54 -13 2 4 21
13 42 19 20 7 41 16 47 21 11 11 25 12 25 1z m316 -246 c-3 -51 -1 -85 6 -93
8 -9 7 -17 -2 -28 -7 -9 -16 -12 -19 -8 -3 4 -4 73 -2 153 3 121 5 137 13 100
5 -25 7 -81 4 -124z m89 -76 c-3 -5 -11 -10 -16 -10 -6 0 -7 5 -4 10 3 6 11
10 16 10 6 0 7 -4 4 -10z m-670 -439 c-6 -5 -21 -11 -35 -15 -21 -5 -20 -3 5
9 35 17 42 18 30 6z"/>
<path d="M3595 6548 c-6 -13 -20 -24 -33 -26 -13 -2 -26 -11 -30 -20 -5 -14
-7 -12 -13 8 -4 14 -7 -59 -8 -162 l-1 -186 34 -21 c23 -15 35 -31 38 -51 4
-26 2 -29 -14 -25 -10 3 -27 8 -38 11 -20 5 -20 1 -20 -263 1 -147 3 -284 6
-304 5 -32 13 -39 68 -68 58 -30 54 -33 -23 -16 -32 8 -33 7 -21 -15 14 -25
107 -71 323 -159 l147 -59 6 24 c15 59 19 -4 15 -251 -2 -144 0 -273 4 -285 8
-24 128 -86 145 -75 6 4 11 54 12 113 l2 107 6 -118 5 -118 80 -35 c44 -19 87
-41 95 -50 8 -8 -27 4 -78 26 -51 22 -95 40 -98 40 -6 0 -5 -42 2 -78 5 -27
15 -34 73 -58 36 -15 93 -40 126 -55 102 -47 346 -141 415 -159 36 -10 108
-31 160 -48 52 -16 98 -28 103 -25 19 11 4 44 -30 68 -39 26 -34 32 12 15 26
-10 27 -9 19 17 -4 16 -8 38 -8 50 -1 26 -39 45 -296 148 -167 67 -217 95
-172 95 13 0 35 -6 51 -14 15 -8 85 -36 157 -61 71 -26 159 -59 197 -73 37
-14 70 -22 75 -18 10 10 9 510 -2 896 -7 244 -12 320 -23 337 -8 12 -13 30
-12 40 2 10 -2 27 -8 38 -10 18 -28 110 -23 117 6 9 -64 129 -79 138 -19 10
-19 -3 -20 -554 -1 -442 2 -566 11 -573 7 -6 41 -21 76 -33 35 -13 62 -29 62
-36 0 -19 -11 -18 -76 11 -31 14 -60 25 -65 25 -5 0 -9 -62 -9 -137 0 -75 -2
-134 -5 -131 -3 3 -6 65 -8 139 l-2 134 -60 30 c-75 38 -86 63 -15 35 28 -11
56 -20 63 -20 9 0 12 54 12 217 l0 217 -30 19 -30 19 27 -6 c14 -3 28 -2 30 4
2 5 1 65 -2 132 l-5 122 -179 68 c-99 37 -185 68 -193 68 -10 0 -13 -29 -15
-127 l-1 -128 -8 115 c-4 63 -5 122 -3 131 3 10 -8 21 -31 32 l-36 17 3 78 c3
74 4 77 27 77 15 0 27 8 32 20 7 19 8 19 8 -3 1 -14 12 -29 31 -40 28 -16 29
-21 32 -91 l3 -74 90 -34 c50 -19 125 -47 168 -63 l77 -29 0 103 0 103 -57 26
c-61 28 -49 38 14 12 19 -8 37 -15 39 -15 2 0 2 36 1 80 l-1 80 -141 59 c-77
32 -162 66 -190 75 -59 19 -82 32 -73 42 4 3 40 -7 81 -24 102 -43 330 -123
335 -118 14 14 -145 146 -175 146 -5 0 -26 9 -48 20 -22 11 -45 20 -52 20 -7
0 -18 9 -25 20 -7 11 -18 20 -25 20 -7 0 -13 4 -13 9 0 10 -360 151 -388 151
-9 0 -12 -29 -14 -102 -1 -57 -3 -85 -5 -63 -1 22 -5 72 -9 111 l-5 71 -100
37 c-136 51 -353 126 -355 123 -3 -2 -7 -744 -5 -854 l1 -71 118 -46 c64 -25
170 -66 234 -91 65 -25 122 -45 127 -45 24 0 31 -47 31 -206 0 -92 -2 -165 -5
-162 -3 2 -5 54 -5 114 -1 60 -3 134 -6 164 -7 64 25 45 -290 171 -150 60
-204 85 -212 102 -7 14 -13 177 -17 462 -3 242 -8 448 -11 458 -8 25 -47 22
-59 -5z m187 -189 c-9 -133 -9 -133 -11 -42 -1 90 -2 93 -28 108 l-28 15 29
-6 c29 -7 29 -6 23 29 -6 37 1 53 15 39 5 -5 5 -69 0 -143z m125 -272 c12 5
14 3 8 -7 -6 -10 -4 -12 11 -6 13 5 16 4 8 -4 -7 -7 -20 -7 -43 1 -24 8 -29
14 -19 20 7 5 14 4 16 -1 2 -5 10 -6 19 -3z m323 -661 c0 -11 -19 -15 -25 -6
-3 5 1 10 9 10 9 0 16 -2 16 -4z m-293 -124 c68 -26 123 -51 123 -56 0 -4 -12
-5 -27 -1 -33 7 -206 80 -243 101 l-25 15 25 -6 c14 -3 80 -27 147 -53z m168
44 c37 -16 38 -17 29 -39 -4 -12 -11 -11 -43 6 -23 12 -37 27 -34 34 6 16 6
16 48 -1z m239 -297 c14 -7 23 -17 19 -22 -4 -7 1 -8 13 -3 14 5 16 4 8 -4
-13 -13 -87 17 -78 32 7 10 8 10 38 -3z m202 -82 c19 -10 71 -31 114 -48 47
-18 80 -36 80 -44 0 -17 -13 -13 -188 58 -145 59 -162 70 -99 63 43 -5 47 -4
48 17 2 19 3 18 6 -4 3 -18 15 -31 39 -42z m-277 -29 c-1 -81 -2 -82 -10 -33
-8 46 -4 115 6 115 3 0 4 -37 4 -82z m151 78 c0 -2 -7 -7 -16 -10 -8 -3 -12
-2 -9 4 6 10 25 14 25 6z m-223 -78 c-2 -13 -4 -5 -4 17 -1 22 1 32 4 23 2
-10 2 -28 0 -40z m476 -553 c4 -9 -1 -11 -14 -8 -10 3 -19 11 -19 19 0 16 26
8 33 -11z"/>
<path d="M5700 6481 c-299 -108 -509 -186 -506 -188 1 -2 38 6 81 17 78 20
122 19 109 -2 -5 -8 -1 -9 12 -4 77 30 386 127 390 123 3 -3 -16 -12 -43 -21
-26 -9 -106 -40 -176 -70 l-129 -53 72 5 c50 3 74 1 79 -7 6 -8 70 10 224 66
119 43 217 81 217 84 0 6 -209 90 -220 88 -3 0 -52 -17 -110 -38z"/>
<path d="M6772 6374 c-1 -83 -5 -166 -8 -183 -6 -27 -4 -31 15 -31 21 0 21 3
19 153 -1 83 -4 134 -7 112 -5 -36 -6 -32 -11 30 -5 54 -7 34 -8 -81z m15
-126 c-2 -13 -4 -5 -4 17 -1 22 1 32 4 23 2 -10 2 -28 0 -40z"/>
<path d="M3449 6465 c-1 -16 -3 -43 -5 -60 -1 -16 0 -74 3 -127 4 -74 9 -98
21 -103 13 -5 14 12 8 141 -4 81 -11 154 -16 163 -7 13 -10 10 -11 -14z"/>
<path d="M4266 6446 l-59 -22 87 -33 c168 -64 325 -109 319 -93 -5 12 7 14 81
10 l88 -4 -119 46 c-175 69 -317 120 -328 120 -5 -1 -37 -11 -69 -24z"/>
<path d="M7215 5804 c-29 -27 -26 -26 -80 -29 -22 -2 -77 -19 -122 -39 -46
-19 -83 -34 -83 -31 0 13 -140 -68 -154 -89 -23 -37 -19 -122 7 -120 23 2 22
-8 -3 -24 -11 -7 -20 -19 -20 -27 0 -12 9 -11 53 4 84 30 410 160 440 177 15
8 27 11 27 5 0 -6 -9 -15 -20 -21 -19 -10 -20 -21 -20 -351 0 -288 2 -340 14
-336 8 3 32 11 54 18 37 11 40 14 46 58 10 78 18 734 9 773 l-8 37 -70 -30
c-40 -17 -83 -28 -100 -27 -27 3 -24 6 38 35 37 17 67 33 67 35 0 2 -11 4 -25
4 -13 1 -36 -9 -50 -22z"/>
<path d="M7210 5579 c-8 -4 -79 -33 -157 -63 -216 -84 -293 -117 -293 -127 0
-5 7 -9 15 -9 12 0 13 -5 7 -17 -10 -20 -24 -83 -18 -83 3 0 88 36 304 128 51
22 66 34 78 60 20 49 37 31 29 -30 -4 -27 -4 -162 0 -298 7 -230 9 -248 24
-233 14 14 17 60 21 347 3 182 5 332 5 332 0 1 -7 -2 -15 -7z"/>
<path d="M3040 5286 c0 -272 0 -274 23 -290 l22 -17 -23 11 c-21 10 -23 9 -20
-11 2 -12 13 -26 26 -30 l23 -9 -5 243 c-2 133 -7 262 -11 287 -6 42 -6 44 9
25 8 -11 16 -32 16 -47 0 -22 7 -29 48 -44 26 -9 100 -39 166 -66 129 -52 141
-55 133 -34 -3 8 1 29 10 47 15 30 15 32 -3 43 -46 27 -385 166 -404 166 -6 0
-10 -100 -10 -274z"/>
<path d="M6960 5340 c-96 -44 -181 -80 -187 -80 -9 0 -13 -17 -13 -50 l0 -50
68 26 c37 14 90 34 119 44 28 10 60 23 72 29 17 10 21 9 21 -3 0 -8 -15 -19
-32 -25 -18 -5 -78 -30 -133 -55 -55 -25 -104 -47 -110 -49 -5 -2 -1 -12 9
-23 20 -20 87 -23 164 -9 24 5 32 3 30 -7 -1 -7 7 -38 19 -68 12 -30 27 -74
33 -97 6 -24 14 -43 18 -43 23 0 32 31 33 109 l1 86 13 -60 c27 -124 28 -126
47 -107 15 15 25 489 11 503 -5 5 -82 -25 -183 -71z"/>
<path d="M3110 5196 c-1 -183 1 -206 17 -222 13 -12 14 -19 5 -22 -17 -5 -15
-22 3 -22 8 0 15 4 15 10 0 6 9 5 24 -2 33 -14 52 -5 60 29 25 110 46 145 66
112 12 -18 193 -24 187 -6 -2 7 -61 37 -132 67 -71 31 -130 61 -133 68 -3 9 2
10 20 3 12 -5 74 -30 136 -54 l112 -45 0 63 0 63 -170 72 c-94 40 -173 77
-176 82 -3 4 -11 8 -19 8 -11 0 -14 -39 -15 -204z"/>
<path d="M6575 5322 c-66 -26 -168 -67 -226 -92 l-106 -45 -7 -80 c-8 -103 -8
-349 0 -408 6 -43 8 -45 29 -35 21 9 24 20 30 95 9 98 1 379 -10 408 -8 19 -7
19 12 -1 25 -25 39 -79 24 -89 -12 -7 -15 -292 -5 -356 l6 -37 41 18 c23 10
46 25 52 33 5 7 22 17 38 21 24 6 27 11 27 45 0 87 13 192 24 188 6 -2 10 -19
9 -38 -2 -30 -2 -31 7 -11 5 12 14 22 20 22 6 0 9 4 6 9 -3 5 35 29 84 52 74
36 90 48 90 67 0 12 -2 22 -4 22 -10 0 -202 -83 -210 -91 -14 -13 -48 -11 -44
2 2 6 62 38 133 70 l130 58 3 45 3 46 -83 -31 c-145 -54 -167 -54 -35 1 42 17
86 39 98 49 l20 16 -20 26 c-13 17 -17 30 -10 40 11 17 12 29 2 29 -5 -1 -62
-22 -128 -48z m-150 -198 c-53 -25 -75 -30 -75 -15 0 7 90 38 115 39 6 0 -12
-10 -40 -24z m-75 12 c0 -3 -4 -8 -10 -11 -5 -3 -10 -1 -10 4 0 6 5 11 10 11
6 0 10 -2 10 -4z m87 -338 c-3 -7 -5 -2 -5 12 0 14 2 19 5 13 2 -7 2 -19 0
-25z"/>
<path d="M2150 5338 c0 -22 13 -32 68 -57 28 -14 52 -28 52 -33 0 -4 11 -8 25
-8 14 0 25 -4 25 -9 0 -8 369 -171 386 -171 3 0 36 -13 74 -30 87 -38 100 -38
100 -1 0 27 -6 31 -127 79 -71 28 -233 94 -362 147 -129 52 -236 95 -237 95
-2 0 -4 -6 -4 -12z"/>
<path d="M3560 5300 c-6 -22 -16 -40 -23 -40 -21 -1 56 -37 209 -99 82 -33
154 -61 161 -63 6 -2 22 18 36 44 l24 47 -51 21 c-128 55 -321 130 -332 130
-7 0 -18 -18 -24 -40z"/>
<path d="M7965 5188 c-66 -28 -223 -97 -350 -153 l-230 -101 -2 -399 c-1 -220
-3 -405 -3 -411 0 -6 -26 -21 -57 -34 -31 -13 -127 -56 -212 -96 l-156 -72 -2
-551 c-1 -303 -1 -551 1 -551 23 0 1006 492 1043 522 15 12 55 51 89 84 60 61
60 62 73 145 7 46 17 86 21 89 5 3 12 297 16 654 6 632 6 648 -12 638 -31 -16
-432 -192 -438 -192 -3 0 -6 7 -6 15 0 11 58 44 169 97 94 45 168 85 165 89
-2 4 0 10 6 14 9 6 15 185 6 185 -3 0 -61 -24 -131 -54 -69 -30 -123 -51 -120
-46 2 4 60 31 127 60 68 29 126 58 130 64 10 15 10 56 1 55 -5 0 -62 -23 -128
-51z m-249 -423 c-11 -8 -27 -15 -35 -15 -11 0 -10 4 5 15 10 8 26 14 34 14
11 0 10 -3 -4 -14z m-179 -112 c-3 -10 -5 -4 -5 12 0 17 2 24 5 18 2 -7 2 -21
0 -30z m583 -203 c-8 -5 -19 -10 -25 -10 -5 0 -3 5 5 10 8 5 20 10 25 10 6 0
3 -5 -5 -10z m-41 -47 c-2 -46 -2 -47 -8 -13 -4 19 -5 41 -3 48 8 24 12 11 11
-35z m-65 -2 c4 -5 -19 -17 -50 -27 -32 -10 -68 -28 -81 -40 -25 -24 -319
-157 -335 -152 -33 11 69 63 362 186 52 22 96 40 97 41 1 1 4 -3 7 -8z m68
-896 c-3 -12 -39 -29 -387 -187 -121 -55 -226 -105 -232 -110 -8 -6 -14 -38
-15 -77 l-2 -66 -3 68 c-2 37 -6 67 -9 67 -3 0 -14 -5 -25 -10 -10 -6 -19 -7
-19 -3 0 10 -10 5 355 178 160 76 296 142 303 148 9 7 12 62 12 211 0 110 3
293 8 406 7 201 7 198 12 -205 3 -225 4 -415 2 -420z m-546 589 l-1 -76 -50
-19 c-38 -14 -51 -16 -57 -6 -5 8 9 20 42 37 l50 24 0 51 c0 43 5 65 15 65 1
0 1 -34 1 -76z m164 -168 c0 -2 -9 -6 -20 -9 -11 -3 -18 -1 -14 4 5 9 34 13
34 5z m-51 -20 c-9 -9 -99 -45 -99 -40 0 6 81 43 94 44 5 0 7 -2 5 -4z m-164
-65 c5 -9 -27 -33 -51 -37 -16 -3 -134 -55 -298 -133 -81 -39 -150 -71 -152
-71 -2 0 -4 7 -4 15 0 8 4 15 10 15 11 0 412 182 450 205 30 17 37 18 45 6z
m-34 -508 c-6 -36 -9 5 -10 163 0 116 2 214 7 218 11 11 14 -326 3 -381z"/>
<path d="M3515 5168 c4 -29 8 -58 10 -64 2 -6 39 -26 82 -44 43 -17 101 -42
130 -55 l51 -23 4 -144 3 -143 33 -35 c32 -34 33 -34 38 -12 8 29 24 28 24 -1
0 -14 6 -24 14 -24 17 0 29 179 24 342 l-3 100 -190 77 c-104 42 -198 77 -208
77 -16 1 -17 -5 -12 -51z"/>
<path d="M2191 5190 c19 -11 247 -104 357 -145 40 -15 71 -29 69 -31 -6 -6
-147 45 -297 106 -168 69 -160 68 -160 36 0 -23 8 -31 58 -52 116 -51 212 -97
208 -101 -2 -2 -55 17 -117 42 -63 26 -122 49 -132 52 -16 5 -18 -1 -15 -71
l3 -77 170 -81 c176 -83 198 -95 190 -108 -4 -7 -60 16 -385 159 -116 51 -113
51 -106 0 3 -24 8 -280 12 -569 4 -289 7 -531 7 -537 0 -7 3 -13 7 -13 4 0 10
-26 13 -57 3 -32 8 -70 12 -85 3 -16 7 -39 9 -52 6 -32 53 -117 75 -136 10 -8
21 -22 24 -31 8 -25 106 -104 172 -139 33 -18 65 -39 71 -46 6 -8 202 -108
435 -223 l424 -208 6 181 c4 100 7 334 8 521 1 196 5 334 10 325 6 -11 22
-764 21 -1025 0 -5 4 -4 8 3 7 10 24 6 76 -18 37 -16 70 -30 72 -30 2 0 4 241
4 535 l0 535 -47 25 c-45 24 -36 28 25 10 21 -7 22 -5 22 54 0 73 9 66 -190
156 -302 137 -316 145 -294 168 7 7 5 582 -2 602 -4 8 -14 15 -23 15 -11 0
-12 3 -4 8 7 5 -7 17 -38 34 -29 15 -50 21 -50 14 -1 -6 -5 -60 -9 -121 l-7
-110 -1 103 c-2 88 -4 103 -19 108 -24 8 -62 26 -43 21 8 -3 20 1 27 8 9 10
-23 28 -150 85 -89 40 -174 72 -189 72 -16 0 -28 4 -28 9 0 5 -9 9 -20 9 -11
0 -20 5 -20 10 0 6 -8 5 -20 -2 -16 -10 -26 -10 -52 4 -89 44 -136 63 -163 65
-23 2 -26 0 -14 -7z m302 -207 c9 -3 17 -9 17 -14 0 -5 -15 -2 -32 7 -39 19
-51 30 -23 19 11 -4 28 -10 38 -12z m184 -222 c92 -36 206 -90 193 -90 -32 -3
-320 120 -320 136 0 3 6 3 13 0 6 -3 58 -24 114 -46z m136 -114 c3 -8 1 -20
-4 -28 -6 -10 -9 -7 -9 14 0 29 5 35 13 14z m100 -493 c4 -5 37 -25 74 -45 36
-20 61 -39 57 -41 -5 -3 -42 9 -81 26 l-73 31 2 245 2 245 5 -227 c4 -125 10
-230 14 -234z m-96 424 c-3 -8 -6 -5 -6 6 -1 11 2 17 5 13 3 -3 4 -12 1 -19z
m-77 -108 c8 -5 11 -10 5 -10 -5 0 -17 5 -25 10 -8 5 -10 10 -5 10 6 0 17 -5
25 -10z m160 -453 c83 -42 78 -42 -22 -2 -63 25 -68 29 -69 59 -5 142 -4 264
0 276 3 8 8 -55 11 -140 l5 -155 75 -38z m-730 -150 l5 -322 355 -177 c195
-97 341 -175 324 -173 -18 3 -92 34 -165 69 -247 117 -474 224 -513 240 l-38
16 6 167 c3 93 6 246 6 342 0 96 3 171 8 167 4 -4 9 -152 12 -329z m126 -246
c3 -13 21 -39 41 -58 31 -31 32 -34 12 -28 -13 4 -37 14 -53 22 -26 13 -28 18
-22 51 3 21 6 48 7 62 l2 25 4 -25 c2 -14 6 -36 9 -49z m445 25 c5 3 9 0 9 -6
0 -6 4 -8 10 -5 5 3 18 1 27 -4 15 -9 12 -10 -13 -7 -37 4 -54 13 -53 29 0 9
2 8 6 -1 2 -6 9 -10 14 -6z m137 -55 c11 -7 11 -9 -2 -14 -9 -4 -16 -2 -16 4
0 6 -5 7 -12 3 -7 -4 -8 -3 -4 4 8 14 16 15 34 3z m187 -85 c135 -63 152 -73
143 -82 -13 -12 -302 122 -293 136 7 11 15 8 150 -54z"/>
<path d="M3989 5150 c-6 -16 -17 -30 -24 -30 -15 0 -20 -59 -20 -268 0 -152 0
-154 25 -174 24 -21 24 -21 3 -15 -20 4 -23 1 -23 -27 0 -33 42 -87 57 -72 4
4 9 144 11 311 3 229 2 305 -7 305 -7 0 -17 -13 -22 -30z"/>
<path d="M8114 5038 c1 -37 4 -68 8 -68 14 0 14 16 3 75 l-12 60 1 -67z"/>
<path d="M3520 5053 c0 -9 9 -24 21 -34 25 -21 107 -54 115 -46 3 3 27 -7 54
-23 48 -28 60 -29 60 -3 0 13 -128 79 -212 109 -34 12 -38 11 -38 -3z"/>
<path d="M7293 4893 l-53 -26 -2 -151 c-2 -83 -3 -220 -3 -305 l0 -155 -223
-102 c-123 -56 -229 -107 -236 -113 -29 -24 -31 -180 -2 -167 6 3 88 39 183
80 94 41 224 99 287 130 l116 55 0 390 c0 215 -3 391 -7 391 -5 -1 -32 -13
-60 -27z"/>
<path d="M7183 4838 c-4 -7 -10 -125 -13 -263 l-5 -250 -202 -90 -203 -90 0
-37 c0 -21 4 -38 9 -38 14 0 275 116 364 162 l77 40 2 52 c7 229 7 316 2 414
-6 106 -12 128 -31 100z"/>
<path d="M3045 4817 c-4 -14 -5 -146 -3 -293 l3 -267 27 -21 c28 -21 420 -196
427 -190 1 1 0 25 -4 52 l-7 50 -126 59 c-70 33 -158 73 -196 89 -72 30 -101
63 -78 86 8 8 12 62 11 172 0 180 -9 250 -32 273 -14 15 -16 14 -22 -10z"/>
<path d="M7113 4813 c-13 -13 -23 -33 -24 -45 l0 -23 -10 24 -9 23 -20 -25
c-11 -14 -20 -28 -20 -32 0 -3 -10 -27 -21 -53 -12 -26 -25 -75 -28 -109 -4
-34 -10 -65 -14 -69 -4 -4 -22 -8 -41 -8 -19 -1 -32 -3 -30 -5 4 -4 -36 -28
-103 -61 -41 -20 -43 -23 -43 -65 0 -53 6 -54 77 -24 69 30 206 79 209 76 3
-3 -74 -38 -218 -101 l-58 -25 0 -50 c0 -28 4 -51 9 -51 5 0 54 18 108 41 54
22 132 54 174 71 65 25 77 34 87 62 13 35 16 348 4 426 l-7 45 -22 -22z"/>
<path d="M3121 4568 l1 -226 96 -45 c83 -39 267 -117 275 -117 1 0 2 21 2 48
l0 47 -75 37 c-86 42 -77 51 11 12 33 -15 61 -25 63 -23 2 2 1 23 -3 47 -7 47
-8 48 -131 108 -41 19 -78 41 -82 47 -4 6 -4 24 -1 39 3 17 1 28 -6 28 -6 0
-11 12 -11 26 0 36 -61 154 -79 154 -8 0 -25 10 -38 22 l-24 22 2 -226z"/>
<path d="M6353 4674 c-29 -12 -33 -19 -32 -52 0 -20 3 -31 6 -24 3 7 17 18 32
24 23 10 24 12 7 16 -17 3 -14 6 12 18 18 7 32 18 32 24 0 13 -18 12 -57 -6z"/>
<path d="M4033 4595 c4 -27 12 -54 17 -60 13 -16 119 -60 126 -52 3 2 6 24 7
48 2 44 2 44 -53 71 -30 14 -66 30 -79 33 -24 7 -24 6 -18 -40z"/>
<path d="M6258 4629 c-24 -13 -25 -74 -2 -65 9 3 20 6 25 6 5 0 9 16 9 35 0
37 -5 40 -32 24z"/>
<path d="M6135 4582 c-68 -27 -70 -29 -73 -65 -2 -20 -1 -37 1 -37 10 0 133
53 145 62 13 11 17 68 5 68 -5 -1 -39 -13 -78 -28z"/>
<path d="M6318 4464 c-9 -167 -8 -484 0 -484 9 0 218 93 335 150 l67 33 0 53
0 54 -37 -16 c-36 -15 -95 -32 -63 -18 8 4 19 11 25 16 5 4 26 19 45 31 31 20
35 27 35 67 0 42 -2 45 -27 46 -16 1 -28 -2 -28 -6 0 -7 -49 -23 -107 -35 -30
-6 -33 -4 -42 27 -8 29 -9 26 -10 -34 -1 -53 -4 -68 -16 -68 -12 0 -15 17 -15
89 0 90 -6 105 -40 106 -8 0 -17 11 -20 25 -5 22 -11 25 -44 22 -24 -3 -42 1
-46 9 -5 7 -10 -23 -12 -67z"/>
<path d="M6258 4523 c-22 -6 -32 -186 -26 -478 3 -121 1 -230 -3 -240 -10 -25
-9 -57 -11 342 -2 188 -6 344 -10 348 -3 3 -41 -8 -83 -26 l-78 -32 5 -429 c3
-235 7 -430 10 -433 5 -5 151 55 283 115 39 18 126 56 195 85 202 85 180 66
180 157 0 43 -4 78 -10 78 -5 0 -33 -9 -61 -20 -28 -12 -53 -19 -56 -17 -2 3
24 20 59 39 60 33 63 37 66 76 l3 41 -93 -38 c-100 -41 -165 -70 -269 -120
-70 -33 -103 -41 -81 -19 14 14 18 579 5 577 -5 -1 -15 -3 -25 -6z"/>
<path d="M3846 4493 c-3 -4 -6 -15 -6 -25 0 -21 -22 -20 -32 2 -4 8 -7 -42 -7
-112 -1 -70 -5 -129 -11 -133 -11 -7 -15 10 -27 104 l-8 65 -20 -40 c-11 -21
-21 -41 -22 -43 -2 -2 -11 2 -20 10 -38 31 -102 59 -137 59 l-36 0 0 -46 0
-45 114 -54 c62 -29 130 -61 151 -69 21 -9 36 -19 33 -22 -3 -2 -61 19 -129
49 -173 76 -169 75 -169 39 0 -16 7 -35 15 -42 13 -10 13 -15 3 -21 -8 -5 27
-26 97 -59 104 -49 283 -130 288 -130 6 0 -5 485 -11 490 -16 13 -60 28 -66
23z"/>
<path d="M3970 4480 c30 -24 52 -26 43 -5 -3 9 -8 14 -10 11 -3 -3 -17 0 -32
5 l-26 9 25 -20z"/>
<path d="M4040 4459 c0 -12 8 -28 18 -36 16 -13 15 -14 -6 -8 l-23 7 7 -321
c6 -256 5 -321 -6 -321 -6 0 -83 31 -169 69 -194 87 -324 141 -327 138 -7 -9
-9 -119 -2 -123 5 -3 4 -11 -2 -19 -11 -13 -2 -1056 9 -1073 10 -15 122 -74
129 -67 3 3 7 159 9 347 1 187 4 343 7 345 2 2 7 -171 11 -386 l7 -389 62 -28
c33 -15 177 -85 318 -155 l257 -128 6 52 c4 29 6 71 4 92 -5 80 1 328 9 321
10 -10 9 0 11 -254 l1 -228 55 -27 c31 -15 58 -27 60 -27 3 0 5 216 5 479 0
264 4 482 9 485 15 10 21 -125 21 -515 0 -212 3 -406 6 -430 l6 -44 89 -42
c49 -23 87 -38 85 -34 -3 4 16 6 43 3 l48 -4 6 286 c3 157 10 293 15 302 9 16
22 -211 22 -388 0 -87 0 -88 30 -103 16 -8 31 -15 35 -15 3 0 5 360 5 801 0
531 3 798 10 794 7 -4 10 -288 10 -821 l0 -814 -41 26 c-22 14 -43 23 -46 20
-3 -3 -2 -26 1 -51 7 -44 8 -45 38 -40 42 8 45 10 67 53 18 35 30 105 37 217
4 74 8 99 15 105 4 3 9 30 12 60 15 140 29 225 38 228 5 2 7 8 3 13 -3 5 -1
24 5 42 17 54 20 93 26 317 3 118 8 299 11 402 l5 187 -33 18 c-51 27 -166 78
-362 159 -210 88 -234 99 -264 130 l-23 23 48 -19 c26 -10 69 -27 95 -38 25
-11 48 -18 51 -15 3 2 16 -2 29 -11 24 -15 249 -112 346 -148 65 -24 83 -14
82 48 -3 114 9 98 -114 148 -61 25 -158 65 -216 89 -58 23 -116 53 -128 65
-12 12 -27 22 -34 22 -6 0 -9 2 -6 5 6 7 58 -15 74 -30 6 -6 38 -19 70 -30 33
-10 77 -27 100 -37 57 -25 89 -24 46 2 -18 11 -39 20 -48 20 -23 0 -75 30 -69
39 5 9 -16 18 -340 151 -184 76 -190 78 -196 57 -3 -12 -2 -32 2 -44 6 -15 5
-23 -2 -23 -8 0 -9 -119 -5 -405 3 -223 3 -405 0 -405 -3 0 -67 29 -142 64
-75 34 -162 74 -192 88 -30 13 -50 27 -45 30 14 7 327 -129 343 -149 10 -14
12 34 14 248 1 145 3 309 3 364 1 55 -1 139 -3 186 l-5 86 -52 17 c-69 22 -85
21 -85 -5z m125 -89 c3 -6 -1 -7 -9 -4 -18 7 -21 14 -7 14 6 0 13 -4 16 -10z
m210 -80 c3 -5 -1 -10 -9 -10 -8 0 -18 5 -21 10 -3 6 1 10 9 10 8 0 18 -4 21
-10z m-6 -847 c2 -172 -1 -253 -8 -253 -8 0 -11 93 -10 293 1 166 5 275 9 252
4 -22 8 -153 9 -292z m-671 236 c12 -18 11 -20 -5 -17 -10 2 -19 11 -21 21 -5
23 10 21 26 -4z m329 -612 c-2 -23 -3 -1 -3 48 0 50 1 68 3 42 2 -26 2 -67 0
-90z m76 -457 l62 -30 6 33 6 32 2 -32 c1 -21 10 -39 29 -54 19 -16 21 -20 7
-15 -11 5 -24 9 -30 10 -5 1 -33 14 -60 28 -71 37 -87 38 -96 8 -6 -23 -7 -23
-8 8 -1 25 -8 37 -33 53 -30 19 -25 20 17 3 13 -5 15 9 16 92 1 55 2 104 4
109 1 6 4 17 6 25 2 8 5 -42 6 -113 l4 -127 62 -30z"/>
<path d="M3946 4423 c-3 -16 -2 -127 2 -248 5 -121 6 -223 5 -227 -2 -4 -29 6
-61 22 -77 39 -350 160 -360 160 -4 0 -8 -23 -8 -52 l0 -51 125 -60 c133 -63
350 -157 363 -157 4 0 8 137 8 305 l0 304 -30 16 c-38 20 -38 20 -44 -12z"/>
<path d="M5805 4341 c-353 -147 -488 -208 -498 -227 -8 -14 -7 -16 9 -10 10 4
45 14 77 22 32 9 73 22 92 30 19 8 38 14 42 14 14 -1 -28 -22 -111 -55 -44
-18 -121 -51 -171 -73 l-90 -40 2 -53 c2 -72 6 -119 9 -119 15 0 225 80 314
120 136 61 291 113 303 101 4 -4 -50 -32 -120 -60 -70 -29 -217 -91 -325 -138
l-198 -86 0 -272 c0 -329 9 -540 24 -561 10 -14 18 -13 69 6 l57 21 2 122 c1
67 2 142 3 167 0 25 2 146 3 270 2 150 6 220 12 210 6 -9 10 -161 10 -377 0
-200 4 -363 8 -363 24 0 102 33 102 43 0 7 16 12 39 12 22 1 45 8 55 18 10 9
22 17 27 17 5 0 43 16 84 35 49 22 75 40 75 51 0 11 5 14 16 10 9 -3 23 -6 32
-6 14 0 14 -1 -1 -12 -16 -12 -17 -49 -15 -469 l3 -457 63 28 62 29 0 180 c0
100 4 181 9 181 5 0 11 -74 12 -164 2 -90 7 -167 11 -171 4 -4 39 10 77 31 57
31 71 43 71 62 0 14 4 21 11 17 6 -4 8 -13 5 -21 -7 -18 1 -14 265 115 l206
101 6 257 c4 141 8 349 8 462 1 113 4 190 8 171 4 -19 8 -208 10 -420 1 -212
4 -386 6 -388 2 -2 26 8 54 23 43 21 50 28 42 43 -12 22 -13 413 -2 467 6 26
9 -50 10 -218 1 -240 2 -258 19 -255 16 3 18 35 25 428 7 399 5 625 -6 636 -2
3 -39 -11 -81 -30 l-76 -35 7 -60 c4 -43 2 -61 -6 -61 -7 0 -11 20 -11 55 0
30 -3 55 -6 55 -4 0 -50 -20 -103 -44 -280 -127 -391 -176 -401 -176 -8 0 -10
120 -6 450 5 355 3 450 -7 449 -6 0 -106 -40 -222 -88z m-185 -141 c0 -5 -7
-10 -16 -10 -8 0 -12 5 -9 10 3 6 10 10 16 10 5 0 9 -4 9 -10z m-15 -179 c-6
-5 -21 -12 -35 -16 -22 -7 -23 -6 -11 9 7 9 23 16 34 16 13 0 17 -4 12 -9z
m122 -808 c-3 -10 -5 -4 -5 12 0 17 2 24 5 18 2 -7 2 -21 0 -30z m709 -34
c-32 -17 -60 -28 -62 -26 -5 5 96 56 111 56 6 0 -16 -14 -49 -30z m-186 -523
c0 -2 -7 -7 -16 -10 -8 -3 -12 -2 -9 4 6 10 25 14 25 6z m-60 -31 c0 -7 -81
-47 -86 -42 -3 2 14 14 38 26 47 23 48 23 48 16z m-100 -49 c0 -2 -7 -6 -15
-10 -8 -3 -15 -1 -15 4 0 6 7 10 15 10 8 0 15 -2 15 -4z"/>
<path d="M6835 3880 c-59 -33 -71 -44 -77 -72 -8 -34 -8 -675 0 -899 l4 -127
55 25 c30 14 66 26 79 27 l24 1 0 543 c0 298 -3 541 -7 541 -5 -1 -39 -19 -78
-39z m-38 -827 c-3 -10 -5 -4 -5 12 0 17 2 24 5 18 2 -7 2 -21 0 -30z m2 -115
c1 -35 0 -60 -3 -57 -8 8 -11 119 -3 119 2 0 5 -28 6 -62z"/>
<path d="M5595 3079 c-60 -27 -116 -53 -124 -57 -11 -6 -13 -72 -12 -367 1
-198 4 -362 7 -364 2 -3 38 9 79 27 41 17 75 29 75 27 0 -2 -37 -23 -81 -46
l-81 -43 5 -64 c3 -38 10 -68 18 -73 12 -7 12 -9 0 -9 -8 0 -12 -3 -9 -6 3 -3
55 20 115 50 l110 55 6 53 c6 52 10 869 5 867 -2 0 -52 -23 -113 -50z"/>
<path d="M5375 2982 l-50 -27 3 -360 c1 -197 4 -360 6 -362 6 -7 77 28 82 40
13 35 30 737 17 737 -4 0 -30 -13 -58 -28z"/>
<path d="M5232 2911 l-54 -26 7 -70 c4 -38 11 -74 15 -80 4 -5 13 -59 19 -120
24 -229 36 -319 45 -333 3 -5 8 -24 11 -43 3 -18 8 -35 9 -37 10 -9 15 348 9
529 l-8 206 -53 -26z"/>
<path d="M5368 2219 c-57 -30 -49 -59 25 -83 15 -5 17 2 17 49 0 30 -1 55 -2
55 -2 -1 -20 -10 -40 -21z"/>
</g>
</svg>
