<?xml version="1.0" standalone="no"?>
<!DOCTYPE svg PUBLIC "-//W3C//DTD SVG 20010904//EN"
 "http://www.w3.org/TR/2001/REC-SVG-20010904/DTD/svg10.dtd">
<svg version="1.0" xmlns="http://www.w3.org/2000/svg"
 width="1024.000000pt" height="1024.000000pt" viewBox="0 0 1024.000000 1024.000000"
 preserveAspectRatio="xMidYMid meet">

<g id="artwork" transform="translate(512,512) scale(1.63) translate(-520.1,-511.75)">
<g transform="translate(0.000000,1024.000000) scale(0.100000,-0.100000)"
fill="#000000" stroke="none">
<path d="M7201 7869 c-105 -18 -225 -94 -287 -182 -17 -25 -22 -26 -54 -17
-50 14 -110 12 -163 -6 -59 -20 -132 -91 -148 -144 -11 -36 -15 -40 -63 -50
-28 -6 -75 -26 -104 -45 -115 -77 -162 -200 -131 -344 10 -48 12 -51 37 -45
35 9 34 6 21 43 -6 17 -9 62 -7 100 3 54 10 78 33 116 38 61 111 112 173 120
75 11 79 13 86 54 8 49 55 113 99 134 44 21 126 22 174 2 51 -22 55 -20 82 30
65 123 244 205 385 177 119 -24 225 -101 276 -203 13 -24 28 -75 34 -114 l12
-70 70 -6 c81 -6 137 -32 184 -85 47 -54 63 -99 63 -174 0 -153 -114 -260
-275 -260 l-58 0 0 91 c0 87 -1 92 -30 120 l-29 30 -491 -3 -492 -3 -24 -28
c-20 -23 -24 -39 -24 -91 0 -61 11 -86 37 -86 9 0 13 18 13 63 0 36 5 68 12
75 9 9 130 12 485 12 l472 0 12 -22 c16 -29 4 -279 -14 -290 -7 -4 -177 -8
-379 -8 -203 0 -368 -3 -368 -7 0 -5 7 -16 14 -25 12 -17 43 -18 383 -18 l370
0 22 24 c12 13 25 42 28 64 l5 39 78 6 c99 6 157 32 219 96 183 188 74 502
-185 536 l-50 7 -12 57 c-16 76 -46 132 -103 195 -96 105 -250 159 -388 135z"/>
<path d="M4914 7839 c-859 -62 -1658 -544 -2126 -1284 -83 -131 -212 -391
-262 -528 -115 -310 -172 -717 -148 -1044 37 -504 183 -926 463 -1339 70 -102
209 -272 236 -287 19 -12 43 -1 43 19 0 9 -25 44 -56 77 -31 34 -92 112 -136
172 -200 274 -342 579 -422 905 -48 198 -66 324 -73 530 -18 528 129 1042 428
1500 432 660 1129 1101 1909 1206 152 21 480 23 625 5 264 -33 555 -116 794
-227 80 -37 106 -42 114 -20 8 20 -19 41 -105 80 -289 131 -612 213 -938 236
-160 11 -184 11 -346 -1z"/>
<path d="M4910 7549 c-168 -18 -367 -61 -540 -120 -210 -70 -529 -244 -695
-377 -104 -84 -288 -265 -373 -367 -205 -245 -392 -603 -476 -915 -65 -241
-92 -565 -67 -815 28 -273 110 -564 224 -795 63 -127 86 -155 108 -133 10 10
1 36 -39 120 -190 400 -267 770 -241 1150 23 333 91 588 234 878 177 360 428
661 736 882 608 436 1360 557 2046 328 141 -48 153 -50 153 -36 0 13 -138 65
-267 101 -140 38 -256 58 -423 71 -87 7 -141 16 -151 25 -18 16 -93 17 -229 3z"/>
<path d="M4850 7225 c-175 -13 -226 -24 -392 -81 -489 -168 -943 -577 -1177
-1058 -165 -340 -235 -711 -202 -1069 13 -143 28 -200 52 -205 26 -5 29 21 14
135 -36 270 -5 583 86 863 36 108 135 321 199 425 280 457 735 789 1261 920
386 97 774 60 1231 -118 85 -33 102 -17 21 19 -194 87 -470 156 -687 174 -150
12 -184 11 -406 -5z"/>
<path d="M6314 6983 c-28 -5 -55 -35 -91 -103 -96 -178 -116 -215 -119 -218
-1 -2 -16 4 -33 12 -71 37 -96 17 -180 -138 -66 -122 -66 -157 -1 -191 l30
-16 -25 -47 c-30 -55 -31 -82 -7 -111 9 -12 82 -56 162 -99 80 -43 209 -113
287 -156 157 -85 176 -88 217 -32 35 46 287 517 292 546 7 35 -81 322 -103
338 -28 21 -344 194 -378 207 -16 6 -40 10 -51 8z m199 -145 c93 -51 171 -97
174 -103 2 -7 -12 -44 -31 -84 -51 -107 -47 -114 120 -217 16 -9 5 -35 -120
-265 -76 -140 -144 -260 -151 -268 -11 -12 -20 -10 -57 12 -24 13 -149 82
-278 152 -129 69 -239 130 -243 135 -12 11 30 102 45 98 7 -2 106 -54 220
-115 206 -113 246 -127 281 -100 23 18 128 207 134 243 4 23 -1 37 -18 57 -13
15 -116 77 -229 138 -113 61 -206 113 -208 114 -2 2 27 57 124 233 21 37 42
62 52 62 9 0 92 -41 185 -92z m243 -244 c14 -47 23 -88 21 -91 -6 -5 -94 44
-102 57 -5 7 44 120 52 120 1 0 14 -39 29 -86z m-455 -100 c138 -75 253 -143
256 -150 6 -17 -108 -224 -125 -224 -23 0 -501 257 -532 286 -12 12 -8 24 30
96 61 117 79 141 101 135 11 -3 132 -67 270 -143z"/>
<path d="M6037 6534 c-26 -42 -57 -100 -57 -108 0 -5 86 -56 94 -56 18 0 2 31
-23 46 l-30 17 31 59 c21 42 28 62 20 70 -7 7 -18 -1 -35 -28z"/>
<path d="M6173 6465 c-60 -26 -71 -89 -24 -136 31 -31 59 -36 94 -17 34 17 46
39 47 81 0 35 -26 77 -49 77 -5 0 -15 2 -23 5 -7 2 -27 -2 -45 -10z m71 -41
c20 -20 20 -34 0 -62 -12 -17 -24 -22 -47 -20 -28 3 -32 7 -35 36 -2 18 2 40
9 48 15 19 54 18 73 -2z"/>
<path d="M6329 6351 c-52 -53 -26 -131 48 -145 28 -5 34 -1 52 30 l21 35 -35
16 c-37 18 -61 10 -32 -11 23 -17 22 -36 -2 -36 -24 0 -51 26 -51 49 0 20 40
61 60 61 8 0 24 -9 36 -21 24 -22 47 -18 37 7 -7 18 -55 44 -83 44 -12 0 -35
-13 -51 -29z"/>
<path d="M6714 6977 c-3 -8 -4 -36 -2 -63 2 -38 7 -50 21 -52 16 -3 18 3 15
59 -3 60 -21 90 -34 56z"/>
<path d="M6935 6967 c-4 -13 -5 -41 -3 -63 2 -32 7 -40 26 -42 22 -3 23 -1 20
60 -2 50 -7 63 -20 66 -11 2 -19 -5 -23 -21z"/>
<path d="M7410 6983 c-64 -23 -46 -123 22 -123 57 0 78 73 32 109 -28 22 -30
23 -54 14z m40 -52 c0 -14 -18 -23 -30 -16 -6 4 -8 11 -5 16 8 12 35 12 35 0z"/>
<path d="M5543 6915 c3 -54 12 -87 41 -145 l36 -75 -5 62 c-5 67 -37 174 -62
207 -14 19 -15 16 -10 -49z"/>
<path d="M6822 6923 c3 -50 6 -58 23 -58 18 0 20 7 20 55 0 50 -2 55 -23 58
-22 3 -23 1 -20 -55z"/>
<path d="M4816 6954 c-296 -36 -654 -224 -911 -478 -243 -240 -398 -501 -475
-800 -34 -132 -37 -164 -15 -172 26 -10 41 13 54 83 45 226 176 497 342 703
215 267 498 458 857 577 150 50 280 73 415 73 71 0 87 3 87 15 0 13 -20 15
-122 14 -68 -1 -172 -8 -232 -15z"/>
<path d="M5776 6848 c-18 -28 -46 -110 -46 -136 0 -12 4 -12 20 3 22 20 54
114 48 143 -3 14 -7 12 -22 -10z"/>
<path d="M5370 6741 c23 -44 150 -130 150 -102 0 13 -84 87 -118 105 -40 21
-45 20 -32 -3z"/>
<path d="M5315 6541 c-17 -7 -14 -10 20 -20 49 -13 135 -15 135 -1 0 22 -113
37 -155 21z"/>
<path d="M7310 6530 c0 -12 23 -60 52 -107 114 -190 228 -482 282 -723 42
-189 58 -347 59 -560 0 -487 -119 -907 -380 -1343 -159 -263 -404 -534 -651
-715 -72 -54 -83 -71 -59 -90 19 -15 43 -1 157 91 523 421 862 1006 965 1667
23 144 31 465 16 631 -33 362 -152 742 -333 1061 -51 89 -65 108 -85 108 -17
0 -23 -6 -23 -20z"/>
<path d="M4960 6525 c-420 -68 -776 -329 -966 -708 -56 -113 -65 -151 -38
-161 18 -7 44 10 44 28 0 6 16 44 35 85 90 188 264 387 440 503 162 108 322
168 519 197 107 15 111 17 111 41 0 31 -26 34 -145 15z"/>
<path d="M4265 6453 c-120 -85 -288 -259 -369 -383 -79 -119 -153 -269 -190
-384 -31 -94 -32 -116 -8 -116 15 0 25 23 52 113 94 313 324 612 603 781 30
18 36 46 10 46 -10 0 -54 -26 -98 -57z"/>
<path d="M5186 6285 c-44 -31 -56 -35 -115 -35 -75 -1 -66 -14 15 -23 59 -7
97 11 133 62 12 17 21 31 19 31 -2 0 -25 -16 -52 -35z"/>
<path d="M5574 6302 c-100 -35 -242 -138 -296 -215 l-22 -32 44 36 c75 60 166
118 268 171 53 28 99 52 101 54 12 11 -50 1 -95 -14z"/>
<path d="M7095 6280 c-3 -5 28 -78 69 -162 82 -167 158 -380 159 -443 0 -22 9
-92 20 -155 28 -166 34 -495 13 -659 -68 -512 -315 -996 -686 -1343 -97 -91
-112 -117 -73 -133 20 -7 214 183 318 310 328 404 515 921 515 1424 0 175 -37
505 -60 536 -4 6 -26 70 -49 144 -48 150 -114 311 -173 418 -22 40 -41 73 -43
73 -2 0 -6 -4 -10 -10z"/>
<path d="M4995 6110 c3 -5 20 -10 36 -10 18 0 28 4 24 10 -3 6 -20 10 -36 10
-18 0 -28 -4 -24 -10z"/>
<path d="M5894 6035 c-4 -9 -2 -21 4 -27 15 -15 44 -1 40 19 -4 23 -36 29 -44
8z"/>
<path d="M5793 6023 c-7 -2 -13 -14 -13 -25 0 -14 6 -19 23 -16 14 2 22 10 22
22 0 21 -12 28 -32 19z"/>
<path d="M5670 5971 c0 -24 13 -33 35 -25 23 9 14 38 -13 42 -16 3 -22 -2 -22
-17z"/>
<path d="M6940 5952 c-35 -5 -140 -53 -140 -63 0 -13 19 -11 76 6 46 14 104
49 94 57 -3 2 -16 2 -30 0z"/>
<path d="M5563 5934 c-3 -8 -1 -20 5 -26 16 -16 42 -2 42 22 0 24 -38 28 -47
4z"/>
<path d="M5463 5884 c-3 -8 -1 -20 5 -26 16 -16 42 -2 42 22 0 24 -38 28 -47
4z"/>
<path d="M5370 5835 c-16 -19 -5 -47 17 -43 11 2 18 12 18 27 0 29 -17 37 -35
16z"/>
<path d="M4400 5689 c-151 -49 -464 -148 -695 -220 -231 -72 -430 -137 -443
-145 l-22 -15 2 -1096 3 -1097 65 -28 c36 -15 438 -176 893 -358 455 -181 841
-337 857 -345 16 -8 37 -15 47 -15 11 0 118 47 238 103 121 57 283 133 360
169 77 36 210 98 295 138 350 164 426 201 438 217 9 13 12 253 12 1119 0 1035
-1 1103 -17 1123 -16 18 -295 114 -578 198 -27 8 -140 43 -250 77 -361 114
-336 108 -362 90 -30 -19 -24 -28 32 -44 25 -7 42 -16 38 -20 -4 -5 -44 -23
-88 -40 -44 -18 -89 -42 -100 -53 -20 -19 -20 -19 7 -13 16 3 75 27 133 51
l105 45 172 -55 c95 -30 257 -80 360 -112 103 -32 188 -61 188 -64 0 -10 -152
-69 -177 -69 -11 0 -50 9 -85 20 -34 11 -72 20 -84 20 -11 0 -63 -18 -115 -39
l-94 -40 -118 37 c-64 20 -117 40 -117 43 0 4 9 9 20 12 54 14 24 70 -46 83
-19 3 -34 10 -34 14 0 4 31 17 69 30 l69 24 107 -37 c100 -34 125 -38 125 -18
0 4 -51 25 -114 45 l-114 37 -58 -17 c-33 -9 -78 -25 -102 -35 -39 -17 -47
-17 -84 -4 -30 10 -46 11 -55 3 -26 -22 -11 -35 74 -62 79 -26 85 -30 68 -42
-10 -8 -23 -14 -28 -14 -5 0 -72 -25 -150 -56 l-141 -56 -218 68 c-120 37
-215 71 -210 75 4 3 83 34 176 68 148 55 172 61 199 52 25 -9 34 -8 49 5 26
24 23 31 -19 45 -54 17 -84 14 -173 -20 -44 -17 -89 -31 -101 -31 -34 0 -392
122 -382 130 4 4 117 42 250 84 178 57 246 75 260 68 10 -5 42 -15 70 -22 29
-6 51 -16 48 -20 -3 -5 -28 -16 -55 -25 -41 -14 -50 -21 -50 -40 0 -12 6 -28
14 -34 12 -10 15 -8 18 11 2 17 19 30 62 51 60 28 60 29 116 13 72 -20 83 -20
97 3 12 19 8 21 -55 40 -37 12 -111 34 -165 51 -53 16 -112 30 -130 29 -17 -1
-156 -41 -307 -90z m-35 -206 l199 -66 -84 -31 c-47 -17 -96 -38 -110 -48 -14
-9 -56 -19 -95 -22 -67 -6 -78 -4 -265 58 -107 36 -188 67 -180 71 37 13 316
103 325 104 5 1 100 -29 210 -66z m-397 -124 c103 -34 190 -64 194 -68 4 -4
-27 -20 -69 -36 l-76 -29 -141 47 c-145 48 -180 55 -174 36 4 -11 288 -108
316 -109 8 0 59 18 114 40 85 35 111 41 177 42 43 0 95 -5 116 -12 l39 -13
-203 -80 -204 -80 -106 30 c-171 48 -555 165 -563 172 -8 7 335 118 370 120
13 0 108 -27 210 -60z m2297 -107 l60 -18 -98 -38 -98 -39 -80 24 c-43 13 -79
26 -79 29 0 3 35 20 78 38 85 36 111 36 217 4z m-2865 -22 c47 -12 169 -48
358 -106 l112 -35 0 -288 c0 -266 -1 -289 -17 -294 -10 -2 -25 -8 -34 -11 -11
-5 -31 18 -79 96 -35 57 -91 144 -125 193 -33 50 -92 140 -130 200 -38 61 -90
143 -117 183 -26 41 -48 76 -48 78 0 3 8 3 18 0 9 -3 37 -10 62 -16z m2000
-28 l85 -29 -49 -24 c-27 -13 -49 -28 -49 -34 1 -5 23 -18 49 -27 27 -9 98
-34 157 -54 66 -23 103 -40 95 -44 -7 -4 -59 -24 -116 -45 l-103 -36 -249 82
c-242 80 -249 83 -255 111 -4 16 -5 31 -3 33 2 2 66 28 141 58 155 61 144 61
297 9z m-839 24 l34 -14 -30 -12 c-16 -6 -102 -40 -190 -75 -88 -35 -164 -65
-170 -66 -17 -5 -95 11 -95 19 0 4 69 34 153 66 83 33 170 67 192 77 50 22 65
22 106 5z m1364 -36 c77 -23 144 -45 149 -48 5 -3 -65 -33 -156 -66 l-166 -62
-155 51 c-85 27 -153 52 -151 54 2 3 66 31 142 63 92 39 147 57 167 55 17 -2
93 -23 170 -47z m-2528 -120 c126 -206 365 -612 361 -614 -2 -2 -24 -22 -50
-45 l-47 -43 -75 102 c-74 99 -76 103 -76 159 0 31 -6 65 -13 74 -7 10 -55 32
-107 50 l-95 32 -2 100 c0 55 1 153 4 218 5 96 8 114 18 100 6 -10 43 -70 82
-133z m1283 66 l0 -51 -124 -53 -124 -53 -91 28 c-50 15 -91 30 -91 33 0 3 51
25 113 50 319 126 317 126 317 46z m1710 -114 l0 -167 -62 -25 c-35 -14 -66
-27 -71 -28 -4 -2 -6 74 -5 168 l3 172 60 23 c33 13 63 24 68 24 4 1 7 -74 7
-167z m-1481 98 c14 0 21 -10 25 -35 8 -42 -11 -34 268 -122 119 -37 214 -71
210 -74 -16 -14 -281 -109 -305 -109 -14 0 -128 31 -254 69 -125 39 -261 80
-301 92 -40 11 -71 24 -67 27 3 3 54 26 113 52 l107 46 3 56 3 56 89 -29 c50
-16 98 -29 109 -29z m1311 -157 l0 -157 -44 -95 c-25 -53 -77 -166 -116 -251
-39 -85 -75 -159 -80 -164 -7 -7 -10 61 -10 186 l0 197 34 58 c18 32 54 98 80
146 40 78 46 96 46 152 0 61 0 62 33 73 59 19 57 25 57 -145z m-2270 -163 c0
-279 0 -280 -41 -280 -5 0 -9 116 -9 279 l0 278 25 -5 25 -4 0 -268z m2148
223 c-4 -49 -17 -80 -81 -199 l-77 -141 0 -209 0 -209 -72 -28 c-39 -15 -75
-24 -80 -19 -4 4 -7 174 -6 376 l3 368 50 20 c82 34 249 96 259 97 4 1 6 -25
4 -56z m-2060 16 l31 -11 3 -251 c2 -139 3 -253 2 -255 0 -1 -22 1 -47 4 l-47
7 0 258 c0 282 -3 269 58 248z m86 -25 c14 -5 16 -38 16 -260 0 -249 0 -254
-19 -244 -19 9 -20 24 -21 260 0 138 1 250 4 250 2 0 11 -3 20 -6z m118 -34
c29 -11 150 -50 268 -86 365 -111 540 -167 540 -174 0 -9 -178 -167 -397 -353
l-172 -146 -56 70 c-31 38 -67 76 -81 85 -24 16 -24 17 -24 180 0 132 3 166
14 170 8 3 47 -4 88 -16 40 -12 81 -24 91 -27 14 -4 18 0 15 12 -2 13 -27 25
-83 41 -100 29 -117 30 -141 2 -18 -21 -20 -37 -19 -165 1 -79 0 -143 -2 -143
-2 0 -28 12 -58 28 l-54 27 -1 258 c0 163 4 257 10 257 5 0 33 -9 62 -20z
m1511 -418 l5 -373 -35 -14 c-20 -8 -37 -15 -39 -15 -2 0 -4 51 -4 113 l0 114
-105 94 -105 94 -1 118 c-1 64 -3 124 -3 133 -1 11 12 22 34 30 19 7 82 30
140 53 58 22 106 37 107 33 1 -4 4 -175 6 -380z m-319 141 l-2 -128 108 -105
108 -105 5 -106 5 -107 -61 -26 -61 -26 -93 92 -93 93 0 255 0 256 33 17 c17
8 37 16 43 16 7 1 9 -42 8 -126z m954 -239 l-3 -356 -175 -69 c-96 -38 -181
-69 -187 -69 -9 0 -13 23 -13 80 l0 79 48 21 48 21 77 172 c42 95 77 176 77
180 0 4 -4 7 -10 7 -12 0 -72 -117 -125 -245 -21 -49 -41 -93 -44 -96 -3 -4
-20 -10 -37 -13 l-31 -7 7 43 c8 47 61 174 169 404 l71 149 57 27 c32 14 61
27 66 27 4 1 6 -159 5 -355z m-973 -319 c144 -134 148 -154 41 -181 -18 -4
-39 8 -98 60 -42 36 -82 66 -91 66 -8 0 -36 -9 -62 -20 -26 -11 -51 -20 -56
-20 -6 0 -8 134 -7 336 l3 337 75 26 75 26 3 -261 2 -262 115 -107z m-1947
542 c7 -6 12 -33 12 -69 0 -60 1 -61 81 -170 51 -68 79 -116 76 -126 -3 -9
-15 -39 -26 -67 -11 -27 -25 -69 -31 -92 l-10 -41 -63 18 c-98 29 -191 62
-201 71 -8 7 -16 526 -8 534 5 5 155 -46 170 -58z m1616 -14 c4 -9 6 -128 5
-265 -2 -222 -4 -248 -18 -244 -9 3 -63 19 -121 37 l-105 32 -81 -87 -81 -88
-69 21 c-60 18 -72 25 -88 56 l-20 36 85 77 c46 42 131 122 189 178 128 124
283 264 291 264 4 0 10 -7 13 -17z m-1020 -209 c12 -5 16 -20 16 -64 l0 -57
-92 1 c-100 2 -97 0 -113 74 -6 28 -3 33 17 41 26 11 148 14 172 5z m127 -51
c94 -50 244 -197 237 -232 -2 -8 -19 -26 -38 -39 l-35 -23 -30 38 c-48 61
-105 110 -167 143 l-58 31 0 60 c0 58 1 60 23 54 12 -4 43 -18 68 -32z m-331
-91 c-8 -3 -33 -23 -57 -45 l-44 -41 -35 35 -35 35 31 40 c18 21 50 52 73 67
l42 28 19 -57 c15 -46 16 -59 6 -62z m-139 -160 c-11 -28 -23 -73 -27 -101 -7
-55 -9 -56 -48 -41 -16 6 -26 17 -26 30 0 37 31 173 46 202 l15 28 29 -34 30
-34 -19 -50z m380 96 c5 -7 10 -32 11 -55 1 -24 2 -50 2 -60 1 -26 -21 -27
-38 -1 -8 13 -27 49 -41 82 l-26 59 42 -6 c23 -3 46 -11 50 -19z m-83 -67 c32
-66 36 -81 24 -86 -16 -6 -76 46 -114 98 l-20 27 24 20 c12 11 28 19 35 20 7
0 29 -36 51 -79z m160 29 c27 -16 32 -25 27 -43 -4 -12 -9 -30 -11 -39 -6 -19
-21 -23 -40 -10 -11 7 -24 112 -14 112 3 0 20 -9 38 -20z m-371 -49 c-35 -71
-46 -186 -28 -283 28 -143 136 -306 245 -369 62 -35 54 -38 -12 -5 -52 27
-137 109 -183 177 -77 116 -104 310 -60 434 17 46 54 105 66 105 1 0 -12 -26
-28 -59z m2151 -258 l-3 -297 -50 -19 c-27 -11 -107 -44 -177 -74 -70 -29
-129 -53 -132 -53 -3 0 -6 134 -6 298 l0 297 113 44 c61 25 139 57 172 72 33
15 66 28 73 28 10 1 12 -61 10 -296z m-2009 221 c52 -63 59 -78 41 -89 -7 -4
-117 48 -148 71 -7 5 40 85 47 82 5 -2 32 -31 60 -64z m1026 28 c102 -34 110
-39 113 -64 4 -34 -5 -35 -87 -9 -72 22 -65 27 -161 -91 -34 -43 -68 -78 -74
-78 -7 0 -48 11 -92 24 -79 23 -79 23 -96 70 l-18 46 28 -6 c15 -4 44 -13 66
-21 21 -7 39 -13 40 -13 1 0 37 41 80 90 44 50 82 90 85 89 3 0 56 -17 116
-37z m-1405 -94 c0 -10 -2 -18 -5 -18 -14 0 -261 83 -269 90 -5 5 -6 15 -3 23
8 22 277 -70 277 -95z m710 22 c-9 -17 -15 -18 -31 -9 -26 13 -33 32 -24 67
l7 27 29 -33 c24 -27 27 -36 19 -52z m216 -14 c36 -78 58 -160 70 -260 6 -51
5 -58 -9 -53 -8 3 -33 11 -56 18 -38 11 -41 15 -46 58 -8 56 -30 128 -62 200
-19 45 -21 56 -10 63 8 4 25 16 38 27 13 11 28 20 32 21 5 0 24 -33 43 -74z
m-1056 -19 l125 -42 8 -70 c11 -102 43 -208 88 -296 l40 -77 -198 -196 -198
-196 -8 445 c-5 245 -6 452 -3 460 7 20 2 21 146 -28z m470 -11 c56 -28 65
-36 62 -57 -2 -13 -5 -25 -6 -26 -4 -5 -131 20 -139 27 -9 8 2 90 12 90 3 0
35 -15 71 -34z m267 9 c52 -22 72 -42 99 -100 40 -85 25 -169 -36 -200 -94
-49 -210 58 -210 193 0 48 4 58 34 88 38 38 59 41 113 19z m163 -32 c0 -20
-28 -15 -39 5 -15 27 7 48 25 24 8 -9 14 -23 14 -29z m671 31 c30 -9 60 -21
67 -26 15 -13 18 -392 3 -386 -5 2 -110 37 -234 78 l-224 75 -9 68 c-5 37 -7
67 -4 67 3 0 40 -11 83 -25 43 -14 81 -25 85 -25 4 0 43 43 85 95 43 52 81 95
86 95 4 0 32 -7 62 -16z m1379 -148 l0 -164 -65 -26 c-36 -14 -69 -26 -74 -26
-4 0 -38 27 -75 61 -69 64 -75 65 -144 44 -23 -7 -23 -7 -20 64 l3 72 175 69
c96 38 181 69 188 69 9 1 12 -38 12 -163z m-1059 97 c104 -92 92 -86 134 -69
63 27 65 25 65 -62 l0 -78 -177 -66 c-98 -37 -186 -70 -196 -73 -16 -7 -17 4
-15 176 l3 183 55 22 c30 13 58 23 61 24 3 0 34 -26 70 -57z m-1655 -23 c6 0
14 -27 17 -63 3 -35 13 -85 22 -112 16 -46 16 -49 -1 -62 -10 -7 -21 -13 -25
-13 -10 0 -47 116 -54 170 -4 25 -8 56 -11 69 -4 21 -2 23 18 17 13 -3 28 -6
34 -6z m695 -32 c6 -23 4 -28 -12 -28 -10 0 -19 6 -19 14 0 8 -3 22 -6 31 -5
13 -2 16 11 14 10 -2 22 -16 26 -31z m-448 -7 c44 -11 42 -9 51 -38 6 -20 1
-24 -60 -43 -37 -11 -68 -19 -70 -18 -1 2 -7 27 -12 56 l-9 52 31 0 c17 0 48
-4 69 -9z m471 -83 c8 -38 4 -43 -23 -28 -27 14 -29 60 -2 60 13 0 20 -10 25
-32z m-396 -37 c9 -27 7 -30 -39 -65 -27 -20 -51 -36 -54 -36 -6 0 -45 76 -45
88 0 6 87 36 122 41 3 1 11 -12 16 -28z m383 -31 c13 -8 19 -21 19 -45 0 -42
-8 -44 -43 -7 -40 42 -24 77 24 52z m1780 -67 c35 -31 67 -61 71 -66 6 -10 24
-5 121 37 l37 16 0 -133 0 -134 -34 -10 -35 -11 -157 153 c-89 88 -154 159
-152 167 5 15 46 38 69 38 9 0 45 -25 80 -57z m-2110 31 c11 -13 7 -26 -20
-82 l-33 -66 -34 37 c-19 20 -34 41 -34 46 0 9 89 81 100 81 4 0 13 -7 21 -16z
m467 -9 l52 -16 -6 -42 c-20 -144 -75 -253 -157 -314 -33 -24 -64 -43 -71 -43
-6 0 -22 26 -35 56 -23 52 -23 57 -7 66 75 42 143 154 153 251 3 31 9 57 13
57 3 0 30 -7 58 -15z m338 -60 c119 -41 219 -77 222 -79 2 -3 2 -11 0 -18 -2
-11 -56 3 -230 61 -185 61 -228 78 -228 93 0 10 4 18 9 18 5 0 107 -34 227
-75z m674 11 l0 -64 -50 -17 c-57 -19 -57 -19 -137 -169 l-58 -108 -68 -29
c-38 -16 -71 -29 -73 -29 -2 0 -4 76 -4 168 l0 169 188 71 c103 39 190 71 195
71 4 1 7 -28 7 -63z m-1754 -23 c20 -32 49 -73 65 -92 26 -32 27 -36 13 -63
-8 -16 -19 -26 -25 -23 -17 11 -88 113 -111 160 -22 46 -23 47 -4 61 11 8 21
14 23 14 1 0 19 -26 39 -57z m571 31 c35 -27 40 -45 20 -82 -12 -21 -14 -20
-45 34 -43 75 -34 93 25 48z m-225 -4 c6 0 7 -15 4 -37 -3 -21 -8 -59 -12 -85
l-6 -48 -27 16 c-67 40 -66 36 -31 104 23 45 35 60 46 56 9 -3 20 -6 26 -6z
m177 -67 c17 -31 31 -60 31 -65 0 -13 -39 -48 -53 -48 -15 0 -53 143 -42 160
14 22 35 7 64 -47z m561 -21 l225 -77 2 -187 c2 -216 11 -203 -102 -159 l-70
27 -3 49 c-2 27 -9 53 -15 57 -7 4 -54 22 -104 39 l-93 32 0 40 c0 33 -8 49
-46 94 -46 53 -46 54 -39 108 3 30 9 55 13 54 4 0 108 -35 232 -77z m-650 11
c6 -32 15 -71 21 -87 l9 -29 -46 6 c-25 2 -48 7 -51 10 -3 4 -2 40 2 82 6 70
8 75 30 75 21 0 25 -7 35 -57z m1952 -119 c114 -111 144 -135 162 -130 11 3
31 9 44 12 l22 6 0 -181 0 -181 -118 -59 c-179 -89 -162 -93 -162 43 l0 114
-52 50 c-29 27 -74 68 -100 92 l-48 43 0 114 0 113 28 10 c47 17 57 26 67 58
5 18 11 32 13 32 3 0 68 -61 144 -136z m-626 34 c-4 -27 -50 -127 -122 -263
-64 -121 -136 -259 -160 -308 -47 -92 -74 -127 -99 -127 -13 0 -15 29 -15 203
l0 204 84 34 84 34 61 115 c34 63 65 121 70 128 11 18 84 42 95 32 5 -5 6 -28
2 -52z m-897 -40 c23 -31 31 -53 31 -84 l0 -42 105 -37 105 -38 0 -48 c0 -27
5 -51 13 -56 6 -4 50 -21 97 -38 l85 -30 7 -55 c8 -61 8 -564 1 -594 -4 -16
-8 -14 -26 15 -12 19 -68 108 -126 199 -57 91 -174 275 -259 410 -85 135 -159
252 -164 260 -8 12 -3 27 20 60 16 25 37 62 45 83 9 20 20 37 26 37 5 0 23
-19 40 -42z m1341 -290 l100 -92 0 -118 0 -118 -40 -20 -40 -20 0 82 c0 46 -4
88 -8 93 -4 6 -31 30 -60 54 l-54 44 -34 -17 c-63 -30 -64 -28 -64 97 0 63 3
156 7 207 l6 92 41 18 41 17 3 -113 3 -113 99 -93z m-2215 278 c24 -32 26 -39
23 -136 l-3 -102 -52 -27 -52 -26 -3 -97 -3 -96 -177 71 c-98 40 -178 75 -178
78 0 10 400 368 412 369 4 0 19 -15 33 -34z m179 1 c28 -19 66 -39 84 -46 29
-12 32 -17 32 -58 0 -41 -1 -44 -22 -37 -35 10 -100 50 -142 86 -36 31 -37 35
-25 61 7 15 14 27 17 27 3 0 28 -15 56 -33z m1808 -29 c3 -7 6 -99 7 -205 l2
-192 -88 -43 c-86 -42 -89 -45 -133 -118 -45 -74 -45 -76 -50 -185 l-5 -110
-165 -82 c-91 -45 -168 -82 -172 -82 -5 -1 -8 79 -8 178 l0 178 121 49 c108
43 122 52 139 83 10 20 50 88 88 151 39 63 68 118 65 123 -9 15 -31 -14 -116
-153 -74 -120 -86 -135 -125 -151 l-43 -19 135 263 135 262 38 7 c21 4 65 18
98 32 70 30 72 30 77 14z m-1482 -74 c11 -25 20 -51 20 -59 0 -18 -84 -25
-147 -13 -54 11 -63 22 -63 80 0 27 1 27 78 31 42 1 81 4 85 5 4 1 17 -19 27
-44z m-378 -19 l57 -40 1 -86 c0 -123 -5 -143 -46 -162 -34 -16 -34 -18 -34
-82 0 -36 -4 -65 -8 -65 -16 0 -147 59 -149 67 -1 4 -3 45 -6 91 l-4 83 59 30
58 29 0 91 c0 50 3 89 8 87 4 -1 33 -21 64 -43z m711 -243 c76 -114 200 -298
275 -409 75 -110 145 -215 155 -232 l18 -31 -43 17 c-24 10 -144 59 -266 108
l-222 90 0 102 0 102 -65 57 -65 58 0 152 0 152 28 21 c15 11 32 20 37 20 6 0
72 -93 148 -207z m-553 153 l30 -16 0 -204 c0 -134 -4 -205 -10 -205 -6 0 -47
14 -90 31 l-80 30 0 64 c0 61 1 64 34 83 43 25 51 61 42 173 l-6 79 25 -10
c14 -5 39 -17 55 -25z m378 -363 l62 -57 0 -88 c0 -100 9 -96 -97 -52 l-58 23
-3 86 -3 85 -44 42 -45 43 0 128 0 128 25 0 25 0 0 -139 c0 -83 4 -142 10
-146 6 -4 10 47 10 145 0 147 1 151 23 159 l22 8 5 -154 5 -155 63 -56z m-290
191 l3 -151 44 -50 c34 -37 45 -58 45 -82 0 -36 -8 -36 -83 -5 l-37 15 0 169
c0 92 -3 190 -6 216 -6 43 -5 47 12 43 18 -3 19 -15 22 -155z m75 45 c2 -57 5
-118 4 -136 0 -26 10 -43 43 -77 40 -41 43 -47 48 -115 l5 -71 -27 12 c-22 10
-26 18 -26 55 0 37 -6 51 -45 94 l-45 51 0 144 c0 135 1 145 19 145 17 0 19
-11 24 -102z m1693 -128 c39 -25 42 -33 40 -129 l-1 -73 -198 -94 c-109 -52
-200 -94 -203 -94 -2 0 -4 39 -3 88 0 87 0 87 47 157 46 69 49 70 152 117 58
25 111 47 119 47 7 1 29 -8 47 -19z"/>
<path d="M5270 5761 c0 -27 19 -36 37 -18 18 18 9 37 -18 37 -12 0 -19 -7 -19
-19z"/>
<path d="M6154 5728 c-80 -87 -98 -136 -30 -85 40 31 79 90 74 113 -2 13 -14
5 -44 -28z"/>
<path d="M6800 5766 c0 -24 201 -86 275 -85 l40 0 -47 25 c-70 36 -268 80
-268 60z"/>
<path d="M5184 5695 c-4 -9 -2 -21 4 -27 15 -15 44 -1 40 19 -4 23 -36 29 -44
8z"/>
<path d="M6334 5675 c-10 -45 -9 -193 0 -202 14 -14 21 14 24 106 5 110 -10
166 -24 96z"/>
<path d="M6746 5629 c17 -34 98 -119 113 -119 21 0 -5 47 -54 97 -59 61 -84
70 -59 22z"/>
<path d="M5107 5623 c-4 -3 -7 -15 -7 -25 0 -21 36 -25 43 -5 9 27 -17 50 -36
30z"/>
<path d="M6615 5600 c-9 -14 13 -114 30 -136 13 -17 14 -16 15 21 0 71 -28
143 -45 115z"/>
<path d="M5024 5525 c-7 -18 3 -35 21 -35 16 0 38 34 28 44 -12 11 -44 6 -49
-9z"/>
<path d="M4970 5435 c-10 -11 -10 -19 -2 -27 15 -15 44 -2 40 19 -4 23 -22 27
-38 8z"/>
<path d="M7056 5421 c-3 -4 -1 -46 4 -92 55 -478 -100 -999 -414 -1387 -68
-85 -78 -115 -40 -120 15 -2 37 18 86 80 322 407 479 922 428 1404 -5 50 -12
99 -16 108 -6 17 -39 22 -48 7z"/>
<path d="M4923 5353 c-18 -6 -16 -40 1 -46 8 -3 20 1 27 9 10 12 9 18 -2 28
-8 8 -20 12 -26 9z"/>
<path d="M6807 5203 c-4 -3 -7 -45 -7 -92 -1 -225 -67 -487 -180 -710 -30 -60
-28 -86 6 -79 51 9 171 318 209 537 22 124 30 302 16 329 -12 22 -31 28 -44
15z"/>
</g>
</g>
</svg>
